<svg width="191" height="29" viewBox="0 0 191 29" fill="none" xmlns="http://www.w3.org/2000/svg">
<g clip-path="url(#clip0_2984_33770)">
<path d="M82.9969 14.4899C82.9998 18.5306 80.3838 21.2249 76.4611 21.2205C72.5312 21.2162 69.9382 18.5306 69.9469 14.4755C69.9556 10.4521 72.5833 7.7867 76.5305 7.79537C80.3765 7.80404 82.994 10.5128 82.9969 14.4885V14.4899Z" fill="#939598"/>
<path d="M90.796 11.6208C90.796 14.4552 90.7989 17.2261 90.7931 19.9983C90.7931 20.5415 90.9928 21.1555 90.0146 21.1613C89.1103 21.1671 89.0481 20.7366 89.0524 20.0272C89.0756 16.4272 89.0524 12.8271 89.0785 9.227C89.0813 8.81816 88.7601 8.18974 89.417 8.02505C90.0537 7.86469 90.6223 7.98893 91.0998 8.62747C92.9085 11.0502 94.7867 13.4223 96.6417 15.8103C97.0598 16.3491 97.4896 16.8779 97.9193 17.4167C98.2984 17.2116 98.1248 16.8894 98.1262 16.6439C98.1421 14.0521 98.1609 11.459 98.1204 8.86728C98.1089 8.13917 98.3606 7.96726 99.0494 7.96293C99.7497 7.95859 99.8843 8.22585 99.8799 8.85428C99.8568 12.6349 99.8727 16.4142 99.8611 20.1948C99.8611 20.4953 100.029 20.9143 99.647 21.0645C99.2447 21.2205 98.7658 21.235 98.4084 20.933C98.0828 20.6571 97.8079 20.3133 97.5445 19.9723C95.5145 17.3561 93.4931 14.7311 91.463 12.1134C91.3169 11.9242 91.2113 11.6728 90.796 11.6208Z" fill="#939598"/>
<path d="M53.077 14.5361C53.077 12.6292 53.1175 10.7208 53.0581 8.81674C53.0321 8.00195 53.4343 7.96439 54.0421 7.97739C54.6107 7.9904 55.1056 7.92683 55.0694 8.77918C55.0101 10.1444 55.0752 11.5139 55.0448 12.8806C55.0318 13.4743 55.2155 13.717 55.8421 13.7055C57.5364 13.6737 59.2323 13.6636 60.9252 13.7098C61.6805 13.73 61.8324 13.4064 61.8136 12.7462C61.7774 11.4157 61.8426 10.0823 61.7905 8.75317C61.7557 7.87482 62.3099 7.98895 62.8511 7.98462C63.4038 7.98028 63.9045 7.89649 63.8958 8.76473C63.8582 12.6147 63.8625 16.4647 63.8943 20.3133C63.9016 21.1368 63.4487 21.1483 62.8598 21.1411C62.2969 21.1339 61.7688 21.1931 61.7919 20.3465C61.8324 18.9091 61.776 17.4673 61.8136 16.0299C61.831 15.374 61.6096 15.1472 60.9469 15.1617C59.2525 15.1978 57.5567 15.2036 55.8638 15.1588C55.1504 15.14 55.0289 15.4491 55.0419 16.0602C55.0737 17.463 55.0014 18.8686 55.0708 20.2685C55.1143 21.1599 54.6295 21.131 54.0001 21.1512C53.3244 21.1729 53.0379 21.0082 53.0596 20.257C53.1117 18.3515 53.077 16.4431 53.077 14.5361Z" fill="#939598"/>
<path d="M134.408 12.5295C134.408 11.3767 134.447 10.2224 134.394 9.07243C134.358 8.28943 134.498 7.93115 135.427 7.93982C136.318 7.94704 136.402 8.30098 136.397 9.02765C136.379 11.4402 136.365 13.8542 136.46 16.2639C136.541 18.3081 137.848 19.4971 139.772 19.4696C141.669 19.4436 142.957 18.1622 142.996 16.144C143.042 13.7314 143.058 11.316 142.987 8.90485C142.96 7.97305 143.401 7.98172 144.086 7.95716C144.831 7.92971 145.085 8.14063 145.064 8.91496C144.993 11.4691 145.116 14.0348 144.936 16.5789C144.719 19.6574 142.527 21.3664 139.303 21.2321C136.436 21.1122 134.478 19.0666 134.413 16.0963C134.387 14.9088 134.408 13.7199 134.408 12.5309V12.5295Z" fill="#0179C2"/>
<path d="M175.072 14.6055C175.072 12.6624 175.091 10.7208 175.06 8.77918C175.052 8.18976 175.199 7.95428 175.837 7.96439C178.072 7.99762 180.308 8.0034 182.543 7.9615C183.22 7.9485 183.27 8.24465 183.289 8.79218C183.309 9.41338 183.103 9.58963 182.493 9.57373C180.98 9.53473 179.465 9.59107 177.951 9.54773C177.279 9.52895 177.06 9.75865 177.099 10.4116C177.16 11.4475 176.772 12.7953 177.29 13.4411C177.843 14.1302 179.251 13.5899 180.282 13.6636C180.605 13.6867 180.936 13.7026 181.255 13.6607C181.946 13.5682 182.104 13.8831 182.11 14.5202C182.116 15.1877 181.81 15.2888 181.25 15.2743C180.133 15.2455 179.015 15.2946 177.898 15.2556C177.281 15.2339 177.072 15.4564 177.098 16.0617C177.137 16.9588 177.138 17.8617 177.098 18.7589C177.072 19.341 177.3 19.4884 177.847 19.4783C179.397 19.448 180.948 19.4942 182.498 19.4552C183.104 19.4393 183.298 19.6141 183.291 20.2324C183.283 20.842 183.201 21.1368 182.475 21.1194C180.313 21.0717 178.148 21.0674 175.986 21.1194C175.178 21.1382 175.042 20.8146 175.058 20.1096C175.099 18.2763 175.072 16.4416 175.072 14.6069V14.6055Z" fill="#0179C2"/>
<path d="M106.773 14.565C106.773 12.6595 106.795 10.7526 106.762 8.84706C106.75 8.20564 106.928 7.96149 107.608 7.97305C109.806 8.01061 112.005 8.00627 114.203 7.97449C114.856 7.96438 114.982 8.24609 114.982 8.81528C114.982 9.3787 114.778 9.57083 114.219 9.56072C112.742 9.53472 111.262 9.59106 109.787 9.53616C109.019 9.50871 108.641 9.67052 108.738 10.5286C108.85 11.5197 108.332 12.804 108.938 13.444C109.554 14.0955 110.849 13.5826 111.843 13.6534C112.166 13.6765 112.493 13.6751 112.816 13.6534C113.384 13.6144 113.747 13.6751 113.759 14.4278C113.772 15.1963 113.457 15.3292 112.8 15.3076C111.684 15.2714 110.566 15.3133 109.449 15.2917C108.948 15.2816 108.728 15.4462 108.742 15.9707C108.769 16.9053 108.78 17.8415 108.738 18.7747C108.711 19.3887 109.007 19.4797 109.521 19.4725C111.071 19.4508 112.622 19.4884 114.17 19.4537C114.782 19.4393 115.005 19.6357 114.98 20.2512C114.959 20.7871 114.891 21.1469 114.221 21.1396C111.987 21.1165 109.751 21.1122 107.517 21.1425C106.847 21.1512 106.759 20.829 106.764 20.2801C106.785 18.3746 106.772 16.4676 106.772 14.5621L106.773 14.565Z" fill="#939598"/>
<path d="M38.347 14.4985C38.347 12.6248 38.376 10.7511 38.3326 8.87884C38.3152 8.16518 38.5467 7.94415 39.2528 7.97159C40.5507 8.02216 41.853 7.95859 43.1509 7.99471C45.67 8.0655 47.2197 9.53904 47.3051 11.8967C47.3905 14.2645 45.8567 15.9735 43.3896 16.2047C42.6011 16.2784 41.8023 16.2625 41.0094 16.2451C40.4929 16.2336 40.3076 16.4358 40.3192 16.9429C40.3424 18.0235 40.2802 19.107 40.3409 20.1833C40.3843 20.9576 40.0949 21.1685 39.3527 21.1555C38.6639 21.144 38.3036 21.0544 38.3311 20.2252C38.3919 18.3182 38.3499 16.4069 38.3499 14.4985H38.347Z" fill="#929497"/>
<path d="M124.009 21.2321C122.665 21.2321 121.483 20.7915 120.396 20.0056C119.797 19.5722 120.037 19.1879 120.319 18.7343C120.649 18.2012 121.031 18.2041 121.481 18.5566C122.491 19.3468 123.604 19.7528 124.902 19.4783C125.951 19.2558 126.528 18.584 126.654 17.5511C126.773 16.5745 126.184 16.001 125.364 15.6615C124.568 15.3336 123.733 15.1039 122.928 14.7947C121.049 14.0695 120.296 12.934 120.453 11.1137C120.589 9.5434 121.769 8.2461 123.49 7.89649C124.995 7.59023 126.413 7.86182 127.734 8.68672C128.344 9.06811 128.191 9.44372 127.912 9.92479C127.606 10.4506 127.266 10.5402 126.776 10.1733C125.954 9.55785 125.012 9.36426 124.014 9.52029C123.169 9.65319 122.548 10.0823 122.367 10.9881C122.19 11.8736 122.603 12.463 123.355 12.8127C124.037 13.129 124.757 13.3674 125.468 13.6159C128.02 14.5116 128.836 15.6933 128.46 17.9686C128.13 19.9637 126.371 21.2523 124.008 21.2292L124.009 21.2321Z" fill="#0079C1"/>
<path d="M164.408 7.97737C165.888 7.97737 167.37 8.00771 168.849 7.96437C169.519 7.94415 169.607 8.24319 169.603 8.80372C169.6 9.35557 169.524 9.69507 168.85 9.65895C168.022 9.61417 167.186 9.69651 166.36 9.63584C165.586 9.57805 165.386 9.86843 165.395 10.6139C165.432 13.7473 165.386 16.8822 165.427 20.0157C165.437 20.8247 165.27 21.1338 164.37 21.1425C163.41 21.1526 163.353 20.725 163.36 19.9767C163.389 16.9155 163.326 13.8513 163.399 10.7916C163.424 9.79475 163.101 9.53327 162.185 9.63584C161.579 9.70374 160.96 9.64162 160.345 9.65028C159.731 9.65895 159.176 9.78753 159.182 8.77916C159.187 7.8069 159.739 7.98026 160.29 7.97882C161.662 7.97593 163.033 7.97882 164.407 7.97882L164.408 7.97737Z" fill="#027AC2"/>
<path d="M153.715 14.6098C153.715 16.5138 153.679 18.4193 153.732 20.322C153.757 21.1859 153.255 21.1136 152.696 21.1079C152.148 21.1021 151.65 21.1989 151.659 20.3263C151.699 16.4474 151.697 12.5671 151.66 8.68671C151.653 7.86326 152.136 7.95427 152.637 7.97883C153.125 8.00194 153.751 7.74335 153.729 8.68237C153.683 10.6572 153.715 12.6335 153.715 14.6098Z" fill="#047BC2"/>
<path d="M0.410913 17.7837C-0.0521099 16.8013 -0.0332996 15.7598 0.0404948 14.7124C1.20963 13.7589 2.46558 14.3873 3.63616 14.6199C6.17121 15.1241 8.10289 16.6078 9.57588 18.7054C9.52379 19.8886 8.50224 20.0937 7.71945 20.5401C7.51398 20.6196 7.30562 20.6802 7.08279 20.608C6.5069 20.2916 6.12346 19.7571 5.64886 19.3266C4.15127 17.9672 2.41494 17.4254 0.410913 17.7852V17.7837Z" fill="#3A7BB7"/>
<path d="M29.2776 12.4876C29.5713 13.5364 29.5641 14.5838 29.2732 15.6312C26.5038 13.5884 23.442 12.2319 20.0258 11.7061C19.7046 11.6569 19.3906 11.5717 19.1214 11.3738C18.8147 10.7829 19.3515 10.4868 19.5743 10.0794C19.8102 9.84678 20.0504 9.61997 20.4222 9.6662C22.0313 10.2686 23.7719 10.442 25.3404 11.2004C26.2737 11.6512 27.2822 11.9502 28.1403 12.5555C28.5454 12.8416 28.9202 12.8777 29.2776 12.4876Z" fill="#669FD5"/>
<path d="M26.0103 7.78957C27.8349 8.33421 28.5685 9.78175 29.0431 11.4431C29.2515 12.0036 29.1386 12.294 28.4745 12.1091C28.1967 12.0311 27.9377 11.9025 27.6888 11.7638C26.1145 10.884 24.4115 10.3307 22.7084 9.76586C22.2381 9.60984 21.587 9.5665 21.6333 8.79938C22.882 7.55554 24.3796 7.38651 26.0103 7.78957Z" fill="#59A2D7"/>
<path d="M0.182312 13.5682C0.186653 13.1363 0.157714 12.6985 0.426846 12.3171C4.71849 12.2073 8.19406 13.8412 10.8724 17.1827C10.9693 17.4182 10.8883 17.6262 10.7798 17.8328C10.5569 18.1622 10.3587 18.5277 9.86673 18.4844C9.24889 18.1535 8.864 17.5713 8.3894 17.0917C6.47219 15.1544 4.13103 14.2544 1.43971 14.1172C0.988262 14.0941 0.316878 14.3888 0.183759 13.5682H0.182312Z" fill="#2778B8"/>
<path d="M0.846458 10.9808C0.886973 10.5835 1.0172 10.2209 1.28199 9.91467C1.81591 10.5315 2.57556 10.4333 3.27154 10.5373C6.71238 11.0531 9.61062 12.5309 11.7897 15.296C11.8997 15.5864 11.8273 15.8551 11.6899 16.1151C11.564 16.3145 11.4179 16.4893 11.1603 16.5182C10.6582 16.433 10.3616 16.0487 10.0404 15.7193C8.02621 13.6607 5.59534 12.4602 2.72749 12.1409C2.29919 12.0932 1.87668 11.9921 1.44694 11.9415C0.849352 11.8707 0.61784 11.5659 0.846458 10.9794V10.9808Z" fill="#016EB4"/>
<path d="M27.3285 20.842C26.9523 21.7074 26.375 22.434 25.7412 23.1217C25.3969 23.3846 25.1031 23.7646 24.5822 23.6331C22.8676 22.4384 21.1153 21.3202 19.0057 20.9345C17.8814 20.7293 16.7166 20.7756 15.6155 20.4173C15.3377 20.0951 15.4882 19.7643 15.5938 19.4349C15.6864 19.2226 15.821 19.0434 16.0221 18.9192C17.307 18.5508 18.4833 19.1677 19.6959 19.3699C21.5972 19.6877 23.2756 20.5921 24.7964 21.7579C25.3549 22.187 25.7904 22.2881 26.197 21.6221C26.4792 21.3274 26.6846 20.9764 26.9263 20.6499C27.0435 20.5358 27.1694 20.4606 27.3372 20.543C27.3763 20.6441 27.3719 20.7423 27.3271 20.8406L27.3285 20.842Z" fill="#016EB5"/>
<path d="M2.16029 8.42233C2.16318 8.35588 2.17476 8.29232 2.19936 8.2302C2.28183 8.15218 2.37588 8.08862 2.47862 8.03806C5.13087 7.84881 7.46046 8.82973 9.67574 10.1082C10.7798 10.7453 11.9344 11.3694 12.6738 12.489C12.8171 12.8444 12.7592 13.1752 12.5581 13.4902C12.49 13.587 12.3989 13.6549 12.2889 13.6968C11.6277 13.6505 11.1965 13.1781 10.7248 12.8098C8.40387 10.9938 5.79647 9.89444 2.85772 9.57084C1.92154 9.46827 1.83907 9.29924 2.15884 8.42089L2.16029 8.42233Z" fill="#0063AB"/>
<path d="M29.0547 16.719C29.0388 17.2521 28.897 17.749 28.6119 18.2027C28.243 17.0556 27.3212 16.4748 26.3446 15.91C24.1394 14.6372 21.8026 13.7719 19.2646 13.4729C18.8335 13.4223 18.4066 13.3645 18.0521 13.0799C17.8278 12.8155 17.9262 12.5382 18.0174 12.2593C18.1548 11.9776 18.3617 11.7898 18.6859 11.7552C22.1499 12.3012 25.4503 13.2822 28.3442 15.3552C28.8145 15.6918 29.3426 15.9909 29.0547 16.7175V16.719Z" fill="#5E96CF"/>
<path d="M7.1436 2.80986C7.22753 2.74629 7.31 2.68417 7.39392 2.62061C8.18396 2.43569 8.84087 1.84772 9.69457 1.8535C11.8939 2.78097 14.0383 3.80523 15.8629 5.38712C15.8788 5.98088 15.4809 6.36804 15.1568 6.79277C14.7111 6.95168 14.3885 6.6772 14.0701 6.45617C12.0719 5.06496 9.93042 3.97281 7.58782 3.2837C7.36499 3.2187 7.05968 3.18258 7.14505 2.80841L7.1436 2.80986Z" fill="#669FD5"/>
<path d="M27.3285 20.842C27.3169 20.7452 27.3053 20.647 27.2923 20.5502C24.7891 18.0668 21.723 16.8317 18.2503 16.5081C17.7482 16.4618 17.236 16.4705 16.8685 16.04C16.7021 15.7337 16.8135 15.4809 17.0161 15.244C17.3243 14.9449 17.7106 14.8612 18.1143 14.9002C21.6868 15.2411 24.8976 16.4806 27.6931 18.7487C27.806 18.8397 27.8885 18.9596 27.9651 19.081C28.0158 19.1807 28.0375 19.2876 28.0288 19.3988C27.7843 19.7499 27.6888 20.1674 27.5122 20.5502C27.45 20.647 27.3878 20.7452 27.3256 20.842H27.3285Z" fill="#0373BB"/>
<path d="M0.846485 10.9808C0.86819 11.3593 0.918833 11.6656 1.42961 11.6916C5.25244 11.8852 8.45888 13.379 10.9939 16.2654C11.0619 16.3419 11.1705 16.3838 11.2602 16.4416C11.5119 16.9328 11.2414 17.1553 10.8174 17.2983C9.41965 16.1469 8.24473 14.7673 6.54891 13.925C4.86466 13.0886 3.12253 12.7737 1.31819 12.557C1.0071 12.5194 0.661276 12.635 0.425424 12.32C0.387803 11.8187 0.583141 11.3897 0.846485 10.9837V10.9808Z" fill="#0D73B6"/>
<path d="M17.3648 0.219594C20.0026 0.3395 22.3293 1.30164 24.4592 2.80697C24.2696 3.06123 23.9875 3.07134 23.7082 3.0959C23.5462 3.10601 23.3841 3.10457 23.222 3.10168C23.0643 3.10457 22.9066 3.10168 22.7503 3.09735C22.5463 3.09735 22.3423 3.09301 22.1383 3.09301C21.9907 3.09735 21.8417 3.0959 21.6941 3.09735C21.4018 3.10024 21.1211 3.16669 20.8462 3.26204C20.4642 3.37472 20.1111 3.56541 19.7392 3.7041C19.3457 3.772 18.9912 4.16639 18.5499 3.85579C18.4717 3.70555 18.4616 3.54808 18.5079 3.38772C19.0172 2.61194 19.9346 2.66539 20.742 2.30134C18.5759 1.5689 16.4662 0.936143 14.196 1.3002C13.8748 1.3522 13.5521 1.37965 13.2598 1.18029C13.0833 0.476743 13.9399 0.660214 14.0817 0.228262V0.231151C15.1741 0.0635713 16.2695 0.0765732 17.3663 0.222483L17.3648 0.219594Z" fill="#76AEDD"/>
<path d="M17.9841 12.9846C21.4655 13.3371 24.6951 14.383 27.6165 16.3549C28.3226 16.8317 28.7089 17.3561 28.6134 18.2027C28.5483 18.3616 28.4846 18.519 28.4195 18.6779C27.0666 16.875 25.1017 16.0082 23.0846 15.2382C21.7042 14.7109 20.2616 14.4148 18.8031 14.1923C18.2779 14.1114 17.7859 14.1085 17.5616 14.7254C17.2433 15.1631 16.8352 15.2686 16.3418 15.0547C15.9352 14.4075 16.3418 13.9164 16.6631 13.4107C17.0537 13.272 17.5254 13.3717 17.8467 13.0163C17.893 13.0048 17.9393 12.9947 17.9856 12.9846H17.9841Z" fill="#4D8DCA"/>
<path d="M29.0547 16.719C29.1256 16.1339 28.6741 15.9143 28.295 15.6543C25.7383 13.8976 22.9515 12.7245 19.855 12.3113C19.4368 12.255 19.0389 12.0426 18.6323 11.9025C18.5064 11.706 18.6077 11.5399 18.7018 11.3723C18.7987 11.2625 18.9044 11.1729 19.065 11.2524C22.3582 11.654 25.4026 12.7577 28.1995 14.5289C28.6264 14.799 29.2356 14.9536 29.2732 15.6297C29.2573 16.0039 29.3151 16.3925 29.0547 16.7175V16.719Z" fill="#649BD3"/>
<path d="M3.95453 5.65439C4.06739 5.35101 4.31337 5.16899 4.56225 4.99129C4.78363 4.80349 5.03106 4.85116 5.27849 4.91328C7.90904 5.58071 10.4455 6.48507 12.6391 8.12331C13.2946 8.61304 14.1902 8.75462 14.6446 9.52318C14.7589 9.89301 14.6865 10.2051 14.3552 10.4348C13.487 10.4261 12.7621 10.0418 12.1081 9.52318C10.0606 7.90227 7.70646 6.96036 5.19167 6.36516C4.70984 6.25103 4.16723 6.23803 3.95598 5.65439H3.95453Z" fill="#4187C7"/>
<path d="M21.6666 8.87886C21.8041 9.23569 22.1354 9.28336 22.445 9.3816C24.4693 10.023 26.4762 10.7107 28.3298 11.7696C28.7176 11.9906 29.0865 12.1654 29.0417 11.4446C29.3152 11.7494 29.2674 12.1264 29.2775 12.489C29.2515 13.064 29.3325 13.613 28.4282 13.0351C26.2346 11.6324 23.795 10.7945 21.2629 10.2209C20.9142 10.1415 20.5307 10.1574 20.3658 9.74565C20.5148 9.03199 20.9981 8.81963 21.6651 8.8803L21.6666 8.87886Z" fill="#61A2D7"/>
<path d="M2.16032 8.42233C2.10678 8.83984 1.93604 9.27901 2.65517 9.31513C5.79505 9.47549 8.4965 10.7555 10.9607 12.6205C11.415 12.9643 11.878 13.2952 12.3381 13.6318C12.4973 14.0782 12.396 14.4162 11.933 14.6055C11.2689 14.5404 10.8709 14.0276 10.418 13.6476C8.15502 11.7479 5.54039 10.7006 2.63347 10.2787C2.18636 10.2137 1.31964 10.5041 1.49761 9.47115C1.61916 9.05798 1.67414 8.6058 2.16032 8.42233Z" fill="#0066B1"/>
<path d="M9.3256 28.2921C7.81354 27.9411 6.46499 27.2332 5.17865 26.3895C5.19457 25.9445 5.52736 26.0197 5.78781 26.05C6.64151 26.1468 7.46338 25.9922 8.27946 25.7842C8.57464 25.686 8.86692 25.5762 9.17078 25.5068C9.54554 25.4404 9.89136 25.2973 10.2227 25.1153C10.5353 24.9463 10.8275 24.7455 11.1184 24.5447C11.2877 24.4161 11.4439 24.2702 11.6161 24.1459C11.7536 24.0549 11.9026 23.9769 12.0256 23.8628C12.111 23.766 12.1906 23.6649 12.2745 23.5666C12.4655 23.3673 12.6724 23.1838 12.8359 22.9584C13.0023 22.7576 13.1875 22.5901 13.4711 22.5915C13.7663 22.6478 13.937 22.8299 14.0036 23.1159C14.0123 23.2199 14.0036 23.3239 13.9761 23.4265C12.9531 25.0734 11.3224 25.868 9.59473 26.5224C9.2301 26.6611 8.83943 26.7275 8.41837 26.8041C8.84377 26.9327 9.25181 27.0194 9.57014 27.3069C9.96805 27.7547 9.83059 28.0696 9.32416 28.2936L9.3256 28.2921Z" fill="#5C8BC1"/>
<path d="M17.3373 14.5014C17.5283 13.8138 18.0608 13.7748 18.6222 13.86C21.7375 14.3339 24.6907 15.2469 27.2938 17.0888C27.8538 17.4861 28.4224 17.8805 28.4195 18.6765C28.3631 19.0637 28.2227 19.4147 27.9623 19.7138C27.8943 19.6646 27.8653 19.6112 27.8755 19.5505C27.887 19.4869 27.9015 19.4552 27.9218 19.4552C27.929 19.3887 27.9348 19.3237 27.9406 19.2572C27.8567 18.7531 27.5036 18.4555 27.1187 18.1723C24.5041 16.2466 21.5451 15.2209 18.3502 14.8048C17.9957 14.7586 17.6224 14.7774 17.3373 14.5014Z" fill="#3F86C6"/>
<path d="M3.9545 5.65439C5.31173 6.32326 6.85129 6.40127 8.23746 7.01092C9.42685 7.53244 10.6206 8.03662 11.6233 8.85863C12.4351 9.52317 13.3973 9.88434 14.2843 10.3943C14.5519 10.6991 14.374 10.9635 14.209 11.2279C13.8343 11.6035 13.4016 11.0877 13.0138 11.303C12.9285 11.251 12.8561 11.1845 12.7982 11.1036C11.9923 9.87856 10.7204 9.22702 9.50065 8.56103C7.91335 7.69569 6.17411 7.19583 4.39726 6.85345C4.0717 6.79133 3.74758 6.76099 3.51173 7.07304C3.30337 7.29985 3.12106 7.55844 2.80851 7.66246C2.69999 7.66824 2.60594 7.63357 2.5307 7.55266C2.8852 6.83034 3.38874 6.21925 3.95594 5.65583L3.9545 5.65439Z" fill="#1A79BE"/>
<path d="M0.182319 13.5682C0.972352 14.1822 1.90708 13.7603 2.76946 13.912C5.79069 14.4437 8.11449 16.0256 9.97092 18.389C10.0317 18.7343 9.8841 18.8744 9.54118 18.8224C8.39085 17.9383 7.59214 16.6843 6.2595 15.962C4.2902 14.8944 2.27461 14.3295 0.039071 14.7124C0.00868509 14.3209 -0.0564276 13.9265 0.180872 13.5682H0.182319Z" fill="#357AB8"/>
<path d="M1.4976 9.47116C1.53522 9.74998 1.65821 9.93056 1.97219 9.95079C5.86738 10.205 9.0796 11.9516 11.9243 14.4986C12.0473 14.6084 12.0675 14.7485 12.0415 14.9016C11.9807 15.0966 11.8852 15.2657 11.6913 15.361C10.583 14.5217 9.73652 13.3963 8.49359 12.6812C6.50548 11.537 4.43201 10.7757 2.12991 10.741C1.51641 10.7323 1.28634 10.4752 1.28345 9.91467C1.28779 9.73409 1.32541 9.57084 1.4976 9.47116Z" fill="#006AB3"/>
<path d="M14.5592 9.53471C11.4265 7.58298 8.25772 5.71071 4.56366 4.98983C4.62733 4.77313 4.78504 4.64455 4.97893 4.55065C5.41736 4.22994 5.86591 4.39318 6.31881 4.51742C8.71929 5.18052 11.0084 6.07332 12.9791 7.64655C13.5593 8.11028 14.4333 8.12473 14.8486 8.84994C14.9064 9.14321 14.986 9.44514 14.5592 9.53471Z" fill="#4E8DCA"/>
<path d="M10.3992 25.2814C10.0476 25.4534 9.73074 25.7119 9.31402 25.7278C7.91627 25.2583 6.48089 25.1023 5.01079 25.1673C4.58829 25.1861 4.1542 25.241 3.74471 25.0619C3.48716 24.7527 3.38877 24.4031 3.47848 24.0058C4.25549 23.269 5.23218 23.5045 6.14375 23.4901C7.38234 23.4698 8.56595 23.7848 9.68009 24.3063C10.0549 24.4825 10.638 24.6097 10.3963 25.2814H10.3992Z" fill="#989A9E"/>
<path d="M10.3992 25.2814C9.41818 24.026 7.93361 24.0087 6.56335 23.8195C5.54904 23.6779 4.49566 23.7342 3.47991 24.0073C3.37717 23.3239 3.86769 23.0191 4.32348 22.6926C6.44181 22.4933 8.49213 22.7201 10.4093 23.7053C10.8044 23.9076 11.3296 24.0318 11.2674 24.6602C10.978 24.8683 10.6872 25.0763 10.3978 25.2843L10.3992 25.2814Z" fill="#8F9194"/>
<path d="M7.14355 2.80984C10.0548 3.62607 12.6014 5.18919 15.1654 6.71619C15.5532 6.85921 15.6068 7.18137 15.6082 7.53387C15.5995 7.64655 15.5706 7.7549 15.5228 7.85747C15.4259 8.00771 15.3 8.09873 15.109 8.04383C13.131 6.56884 11.14 5.13285 8.77716 4.27906C7.94227 3.97713 7.02924 3.93523 6.25513 3.46427C6.47362 3.14212 6.79629 2.95864 7.14355 2.81129V2.80984Z" fill="#659CD3"/>
<path d="M6.25517 3.46284C9.7727 3.90924 12.6782 5.54892 15.1655 8.00483C15.3492 8.22731 15.2711 8.38189 15.0367 8.49746C14.9296 8.48013 14.8356 8.4339 14.7531 8.36311C12.4582 6.50528 9.88556 5.17187 7.07559 4.27474C6.68058 4.14905 6.18861 4.1635 6.01208 3.65498C6.09311 3.58997 6.17414 3.5264 6.25373 3.4614L6.25517 3.46284Z" fill="#6299D1"/>
<path d="M14.7878 8.89041C11.9518 7.40819 9.37911 5.37701 6.12927 4.74714C5.74583 4.67346 5.37975 4.52033 4.97894 4.55211C5.13521 4.41198 5.29293 4.27329 5.4492 4.13316C5.78345 3.81678 6.12348 4.03204 6.46206 4.1216C8.95805 4.78037 11.2949 5.7974 13.3626 7.34607C13.8733 7.72891 14.6388 7.73902 14.9282 8.42523L14.9687 8.45557C15.1018 8.68093 15.0642 8.83551 14.7878 8.89185V8.89041Z" fill="#5792CD"/>
<path d="M14.9282 8.42522C12.095 6.86788 9.43554 4.94938 6.17991 4.27617C5.93682 4.22561 5.69229 4.18082 5.44775 4.1317C5.55338 3.87745 5.69084 3.65786 6.01062 3.65497C8.94069 4.4712 11.6407 5.77283 14.1425 7.49486C14.4984 7.74045 14.9209 7.89792 14.9267 8.42377L14.9282 8.42522Z" fill="#5E95CF"/>
<path d="M0.410908 17.7837C1.3167 16.7161 2.36284 17.5193 3.26863 17.6883C4.96156 18.0047 6.10609 19.25 7.15224 20.5444C7.02057 20.8695 6.77458 20.9431 6.4577 20.8579C5.23793 19.6849 3.90963 18.7184 2.19789 18.3514C1.61766 18.2272 0.962195 18.3948 0.455763 17.9542C0.40512 17.9065 0.390651 17.8487 0.412355 17.7822L0.410908 17.7837Z" fill="#3379B4"/>
<path d="M189.649 7.27674C190.023 6.86501 190.026 6.3695 190.201 5.94477C190.301 5.70351 190.465 5.61828 190.703 5.64861C190.92 5.67606 190.997 5.83353 190.999 6.02856C191.003 6.75811 191 7.48766 191 8.31978C190.245 8.0164 190.653 7.43565 190.353 7.1395C190.02 7.44143 190.249 8.25333 189.67 8.19554C189.104 8.1392 189.374 7.31719 188.983 6.96758C188.696 7.32008 189.112 7.8676 188.592 8.25044C188.293 7.46166 188.465 6.69455 188.448 5.94621C188.443 5.73241 188.592 5.64717 188.804 5.64717C189.023 5.64717 189.118 5.7873 189.181 5.96211C189.335 6.38683 189.484 6.81301 189.649 7.27819V7.27674Z" fill="#8D8E90"/>
<path d="M19.7234 3.48739C20.0677 3.30248 20.3948 3.06989 20.81 3.06555C22.1875 3.64197 23.1613 4.67634 23.9919 5.86963C24.2335 6.21779 24.2928 6.59484 24.0642 6.98201C23.9904 7.04847 23.9166 7.11636 23.8443 7.18282C23.756 7.24349 23.6591 7.27094 23.552 7.26083C23.0774 7.08458 22.9197 6.61218 22.6288 6.26546C21.9864 5.49835 21.2615 4.83092 20.3962 4.31518C20.0866 4.13026 19.6308 4.02047 19.7248 3.49028L19.7234 3.48739Z" fill="#7E7F83"/>
<path d="M0.452881 17.9556C2.9069 17.9556 5.01221 18.7011 6.50257 20.7669C6.50691 21.2191 6.18713 21.1339 5.91221 21.1252C4.42765 19.9218 2.85626 18.9062 0.850791 18.8542C0.601916 18.6057 0.480373 18.3023 0.452881 17.9571V17.9556Z" fill="#2B78B3"/>
<path d="M17.7685 28.3369C15.7153 29.0881 13.6173 29.1589 11.4873 28.7544C11.3513 28.451 11.4917 28.2257 11.6986 28.0191C11.8447 27.9281 12.0039 27.8818 12.1732 27.8602C12.341 27.837 12.5089 27.8298 12.6782 27.8313C13.4566 27.7865 14.2177 28.2314 15.0049 27.9021C15.8282 27.8659 16.6356 27.5857 17.4719 27.7475C17.7063 27.8761 17.8583 28.0465 17.77 28.3383L17.7685 28.3369Z" fill="#4B86BC"/>
<path d="M3.74762 25.0619C5.66338 24.7932 7.58058 24.5042 9.31547 25.7278C9.03332 25.8059 8.75261 25.8824 8.47046 25.9604C7.07849 26.128 5.69521 26.1511 4.33653 25.7365C4.05871 25.5819 3.85035 25.3681 3.74762 25.0619Z" fill="#A3A5A8"/>
<path d="M21.6666 8.87885C21.1877 9.09843 20.742 9.37003 20.3673 9.74419C20.1517 9.88866 19.9346 10.0331 19.719 10.1776C19.4181 10.2802 19.1851 10.1891 19.0115 9.93055C19.0173 9.37436 19.46 9.15622 19.8391 8.9193C20.7391 8.35588 21.6869 7.87914 22.6809 7.50209C23.1917 7.1886 23.7589 7.57288 24.2784 7.37207C24.8803 7.41397 25.4808 7.45875 26.0118 7.79102C24.4274 7.61044 23.0022 8.06695 21.6681 8.88029L21.6666 8.87885Z" fill="#80AEDD"/>
<path d="M11.2689 24.6574C9.85374 23.3962 8.10149 23.1015 6.30293 22.9209C5.64312 22.8544 4.93701 23.1564 4.32495 22.6912C4.48846 22.4629 4.72141 22.3459 4.98621 22.2795C6.61258 22.0165 8.15647 22.3878 9.68445 22.8833C9.79007 22.9093 9.89136 22.9483 9.98975 22.9974C10.5237 23.4727 11.3557 23.5349 11.7261 24.2399C11.5742 24.38 11.4222 24.5187 11.2703 24.6588L11.2689 24.6574Z" fill="#8A8C8F"/>
<path d="M24.7225 23.6346C25.0626 23.4641 25.4026 23.2922 25.7426 23.1217C24.2118 25.1442 22.2584 26.6221 19.9302 27.6189C19.7552 27.4484 19.7609 27.2505 19.8405 27.0411C20.7029 26.2898 21.804 25.9186 22.7156 25.2453C22.8241 25.1659 22.9341 25.0864 23.0383 25.0012C23.1974 24.8654 23.3494 24.7195 23.5187 24.5938C23.6474 24.5071 23.7893 24.4436 23.918 24.3583C24.0048 24.2904 24.0873 24.2182 24.1611 24.1373C24.2291 24.0492 24.2913 23.9567 24.3521 23.8628C24.4447 23.7371 24.5417 23.6172 24.7225 23.6331V23.6346Z" fill="#5E8DC2"/>
<path d="M0.85083 18.8527C1.46723 18.2734 2.10389 18.8007 2.66964 18.912C3.969 19.1706 5.02238 19.9348 5.85148 20.9793C5.72415 21.3014 5.48106 21.3751 5.16708 21.2956C4.05871 20.1009 2.51627 19.7744 1.06932 19.2572C0.895685 19.1763 0.858065 19.0232 0.85083 18.8527Z" fill="#2377B2"/>
<path d="M24.0642 6.98056C23.8558 5.44056 22.6664 4.646 21.5885 3.78065C21.3092 3.55673 20.9778 3.40504 20.81 3.06555C21.0777 2.90519 21.3584 2.79829 21.6782 2.85896C23.1512 3.73009 24.1264 5.04328 24.9324 6.50671C24.643 6.66563 24.3536 6.82309 24.0642 6.98201V6.98056Z" fill="#737477"/>
<path d="M23.62 2.83729C23.9007 2.82718 24.18 2.81562 24.4607 2.80551C25.8078 3.58851 26.184 4.2545 25.9366 5.41456C25.883 5.46945 25.7919 5.53157 25.7557 5.49979C24.902 4.72546 24.0005 3.98868 23.62 2.83729Z" fill="#545456"/>
<path d="M3.40609 21.222C2.6175 21.0183 1.9302 20.6658 1.50335 19.9305C1.47876 19.4769 1.78261 19.5274 2.07345 19.5635C2.83599 19.656 3.49435 20.0056 4.12522 20.4144C4.36686 20.5705 4.63744 20.7814 4.55641 21.0862C4.45513 21.469 4.08181 21.2697 3.82136 21.3C3.67956 21.3159 3.53776 21.2856 3.40609 21.222Z" fill="#1475B0"/>
<path d="M186.009 5.81328C186.792 5.57925 187.454 5.54602 188.222 5.84362C187.167 5.95053 187.403 6.66708 187.359 7.26805C187.336 7.59021 187.571 8.15074 187.106 8.17529C186.603 8.2013 186.823 7.63499 186.795 7.32006C186.746 6.72775 187.005 6.01843 186.008 5.81328H186.009Z" fill="#909193"/>
<path d="M3.40609 21.222C3.72152 21.2032 4.03696 21.1859 4.36976 21.1657C3.71139 20.1183 2.4974 19.604 1.50335 19.9305C1.26026 19.7701 1.03743 19.5953 1.06927 19.2573C2.72892 19.3064 4.18744 19.7846 5.20175 21.1989C4.90947 21.6684 4.48696 21.5311 4.07458 21.4416C3.83149 21.4286 3.57972 21.4401 3.40464 21.2205L3.40609 21.222Z" fill="#1D76B1"/>
<path d="M9.75389 1.96473C8.97688 2.21754 8.26932 2.72173 7.39392 2.6206C8.47479 1.75236 9.71772 1.22073 11.0504 0.875458C11.3296 0.940467 11.5033 1.1066 11.5496 1.39553C11.5061 1.56022 11.3904 1.65413 11.2428 1.72058C10.7523 1.83615 10.2936 2.14098 9.75534 1.96473H9.75389Z" fill="#7EA8D9"/>
<path d="M11.4873 1.31318C11.2775 1.22939 11.1314 1.08348 11.0489 0.87401C12.014 0.446392 13.0167 0.190688 14.0802 0.22536C14.2553 0.975135 13.474 0.771439 13.215 1.08926C12.6825 1.50099 12.1254 1.71913 11.4873 1.31318Z" fill="#80AFDD"/>
<path d="M24.9323 6.50673C24.5851 6.5024 24.4563 6.24525 24.3333 5.9881C23.7241 4.71103 22.5073 3.94969 21.6782 2.85898C21.82 2.8532 21.9632 2.84742 22.105 2.84164C23.6807 3.5163 24.5619 4.80349 25.1914 6.31459C25.1045 6.37816 25.0192 6.44317 24.9323 6.50673Z" fill="#6C6D6F"/>
<path d="M9.96805 23.1419C8.3301 22.7201 6.65309 22.5308 4.98621 22.278C5.27415 22.1162 5.56209 21.9544 5.85003 21.7926C5.90646 21.7883 5.96434 21.7825 6.02077 21.7782C7.10164 21.953 8.20567 22.0136 9.24313 22.4109C9.59763 22.5467 10.0404 22.5886 9.96805 23.1419Z" fill="#86878B"/>
<path d="M4.33653 25.7365C5.71981 25.7033 7.10165 25.7307 8.47046 25.9604C7.43155 26.5455 6.27544 26.2349 5.17865 26.3895C4.89795 26.1714 4.61724 25.9532 4.33508 25.7351L4.33653 25.7365Z" fill="#A3A9B1"/>
<path d="M11.7015 28.113C11.6291 28.3268 11.5582 28.5406 11.4859 28.7544C10.7277 28.7775 10.0244 28.5406 9.32556 28.2921C9.46592 28.035 9.80305 27.8284 9.53392 27.4687C10.3862 27.2462 11.1111 27.4571 11.7015 28.113Z" fill="#588ABF"/>
<path d="M25.1914 6.31458C24.2349 5.09241 23.3914 3.77199 22.105 2.84163C22.3206 2.83875 22.5362 2.8373 22.7518 2.83441C24.0497 3.59286 24.8716 4.73847 25.42 6.10511C25.3433 6.17445 25.2666 6.24524 25.1914 6.31458Z" fill="#666769"/>
<path d="M19.9332 27.0454C19.9332 27.2361 19.9317 27.4282 19.9303 27.6189C19.2025 27.837 18.5745 28.3542 17.7685 28.3383C17.6962 28.1924 17.6224 28.0451 17.55 27.8992C17.6238 27.629 17.8467 27.5279 18.0767 27.434C18.4327 27.3155 18.7611 27.1234 19.1316 27.0425C19.3573 27.0006 19.583 26.9443 19.816 26.9717C19.855 26.9963 19.8941 27.0208 19.9317 27.0468L19.9332 27.0454Z" fill="#558ABE"/>
<path d="M4.07605 21.4416C4.4566 21.3809 4.85885 21.43 5.20322 21.1989C5.42026 21.1252 5.63586 21.053 5.8529 20.9793C6.0931 20.9793 6.34486 21.0154 6.50403 20.7669C6.71962 20.6932 6.93667 20.6196 7.15226 20.5459C7.2984 20.4765 7.44454 20.4086 7.58924 20.3393C7.81786 20.6138 7.65725 20.8363 7.49519 21.0602C7.3476 21.2191 7.16673 21.3303 6.9685 21.4127C6.54165 21.6409 6.07284 21.5889 5.6156 21.6091C5.10483 21.5398 4.56222 21.7522 4.0775 21.4416H4.07605Z" fill="#5188BD"/>
<path d="M25.42 6.10368C24.5388 5.00574 23.756 3.82979 22.7518 2.83298C22.8965 2.83298 23.0412 2.83587 23.1859 2.83587C24.2176 3.65499 25.1581 4.54634 25.5719 5.85375C25.6168 5.99533 25.5343 6.06034 25.4186 6.10368H25.42Z" fill="#606163"/>
<path d="M25.5733 5.85373C24.9121 4.74279 24.0555 3.78498 23.1873 2.83585C23.332 2.83585 23.4753 2.83585 23.62 2.83729C24.3926 3.69686 25.1653 4.55643 25.9365 5.41455C25.815 5.56046 25.6934 5.70637 25.5719 5.85228L25.5733 5.85373Z" fill="#58595B"/>
<path d="M17.3648 0.21959C16.2695 0.22248 15.1741 0.225369 14.0788 0.228258C15.1727 -0.0794532 16.268 -0.0693406 17.3648 0.21959Z" fill="#80AFDD"/>
<path d="M5.61414 21.6091C6.05835 21.4791 6.50256 21.3491 6.94677 21.2191C7.0987 21.2725 7.21446 21.3549 7.20578 21.5398C7.077 21.8099 6.83247 21.8432 6.57346 21.8446C6.33182 21.8172 6.09742 21.9299 5.85433 21.888L5.84999 21.7941C5.77185 21.7319 5.69372 21.6713 5.61414 21.6091Z" fill="#D7DFE6"/>
<path d="M24.2769 7.37062C23.8139 7.69133 23.225 7.50353 22.7432 7.74623C22.6751 7.66244 22.6534 7.56854 22.6723 7.46308C22.8748 7.01668 23.3161 7.2955 23.6186 7.15103C23.6938 7.16114 23.7676 7.17126 23.8428 7.18137C23.9875 7.24493 24.1322 7.30705 24.2769 7.37062Z" fill="#F1F4F6"/>
<path d="M27.9218 19.4552C27.9348 19.5418 27.9493 19.6285 27.9623 19.7152C27.8986 20.0388 27.7713 20.3292 27.5152 20.5502C27.4834 20.124 27.6309 19.7629 27.9218 19.4552Z" fill="#2580C2"/>
<path d="M2.52927 7.55121C2.62477 7.56132 2.72027 7.56999 2.81721 7.5801C2.97203 7.99472 2.57268 8.0395 2.38602 8.22731C2.3238 8.22731 2.26158 8.2302 2.19936 8.2302C2.12846 7.91671 2.34695 7.74335 2.53072 7.55265L2.52927 7.55121Z" fill="#0A76BC"/>
<path d="M76.5016 19.4826C73.7394 19.4956 71.9784 17.6002 71.9495 14.5824C71.9206 11.5385 73.7264 9.52174 76.4784 9.52607C79.1741 9.52896 80.9915 11.5327 80.9929 14.5058C80.9958 17.5035 79.2204 19.4696 76.5016 19.4826Z" fill="#FEFEFE"/>
<path d="M40.3221 12.0036C40.3221 11.9314 40.2989 11.8491 40.325 11.7898C40.6592 11.0646 39.5364 9.72831 41.0369 9.56073C43.7282 9.26169 45.0637 9.99557 45.275 11.5818C45.492 13.2186 44.6572 14.3353 42.9888 14.6401C40.5044 15.0938 40.3206 14.9132 40.3206 12.0036H40.3221Z" fill="#FEFEFE"/>
<path d="M7.36786 20.9677C7.44165 20.7583 7.51545 20.5488 7.58924 20.3393C8.35757 19.9839 9.08828 19.5809 9.54262 18.8224C9.68587 18.6779 9.82912 18.5335 9.97236 18.389C10.188 18.1723 10.4036 17.9556 10.6192 17.7389C11.0344 17.6407 11.2211 17.8863 11.347 18.2229C10.6756 19.6964 8.61658 21.1165 7.36931 20.9692L7.36786 20.9677Z" fill="#5E8CC2"/>
<path d="M19.0548 9.95367C19.2762 10.0274 19.4976 10.1025 19.719 10.1762C19.5019 10.5359 19.2834 10.8941 19.0664 11.2539C18.9941 11.3247 18.9217 11.3969 18.8479 11.4677C18.5108 11.5905 18.2142 11.5197 17.9508 11.2828C18.0188 10.5922 18.2416 10.0302 19.0548 9.95367Z" fill="#7BA6D7"/>
<path d="M11.2037 18.168C11.0084 18.025 10.8116 17.8819 10.6163 17.7389C10.6828 17.5916 10.7508 17.4442 10.8174 17.2983C10.9635 17.0123 11.2877 16.8172 11.2602 16.4416C11.3412 16.3015 11.4222 16.1614 11.5018 16.0212C11.9287 15.9187 12.1833 16.1686 12.4148 16.4676C12.3642 17.2853 11.8288 17.7591 11.2023 18.1694L11.2037 18.168Z" fill="#5287C2"/>
<path d="M12.3063 16.4387C11.9547 16.4575 11.7854 16.131 11.5032 16.0198C11.5669 15.8002 11.6291 15.5806 11.6913 15.361C11.7651 15.2165 11.8404 15.0721 11.9156 14.9276C12.4061 14.6632 12.6405 14.9825 12.8619 15.3379C12.888 15.8103 12.8518 16.2524 12.3063 16.4387Z" fill="#4983C1"/>
<path d="M26.4314 21.6308C25.7831 22.8212 25.7875 22.8154 24.7254 22.0035C22.1658 20.0446 19.1879 19.2962 16.0423 19.0362C15.9656 18.9481 15.9309 18.8455 15.9367 18.7285C15.9916 18.3298 16.0568 17.9354 16.5024 17.762C17.8842 17.5034 19.2125 17.8473 20.5191 18.2012C22.4002 18.7126 24.1119 19.6011 25.6746 20.7669C25.9843 20.998 26.346 21.1974 26.4299 21.6308H26.4314Z" fill="#0067B2"/>
<path d="M26.4314 21.6308C24.4042 20.1269 22.27 18.8325 19.7581 18.2994C18.6729 18.0683 17.5804 17.8819 16.4619 17.9556C16.2189 17.7057 16.229 17.4167 16.3332 17.1134C16.4171 16.9487 16.5415 16.823 16.7036 16.7363C18.2055 16.4402 19.6322 16.875 21.0473 17.2535C23.0108 17.7794 24.8079 18.6794 26.4039 19.9521C26.6875 20.1775 26.9682 20.4014 27.0796 20.7669C26.9017 21.0833 26.8221 21.4733 26.4314 21.6308Z" fill="#0063AB"/>
<path d="M27.0796 20.7655C24.8947 19.055 22.5217 17.723 19.7537 17.2232C18.7423 17.0397 17.7294 16.8187 16.6876 16.875C16.4402 16.5817 16.6008 16.3347 16.7788 16.0891C16.8193 16.0631 16.8613 16.0371 16.9032 16.0111C18.7004 16.3058 20.5177 16.4214 22.2613 17.0758C23.9716 17.7172 25.4822 18.6447 26.9335 19.7123C27.2417 19.9391 27.3155 20.2093 27.2938 20.5502C27.2229 20.6224 27.152 20.6947 27.0796 20.7669V20.7655Z" fill="#0069B4"/>
<path d="M24.7225 23.6346C24.6386 23.7574 24.5561 23.8787 24.4722 24.0015C24.1481 24.0925 23.9325 23.8975 23.6995 23.7241C21.545 22.1177 19.1909 21.0992 16.4301 21.261C16.0741 21.2812 15.7066 21.2812 15.3926 21.0559C15.1727 20.7308 15.2783 20.4997 15.6039 20.3335C18.8089 20.3451 21.7794 21.0761 24.3029 23.1665C24.4635 23.2994 24.5836 23.4785 24.7225 23.636V23.6346Z" fill="#0C73B6"/>
<path d="M15.6024 20.3321C15.5286 20.5488 15.4534 20.764 15.3796 20.9807C15.3926 21.1931 15.3217 21.3665 15.138 21.4878C15.0367 21.5167 14.9354 21.5196 14.8312 21.5051C14.5693 21.4343 14.3031 21.3708 14.1671 21.0949C14.0991 20.348 14.3132 19.7239 14.9614 19.289C15.2754 19.2067 15.5677 19.2255 15.8108 19.4696C15.7399 19.7571 15.6704 20.0446 15.5995 20.3321H15.6024Z" fill="#4A85C1"/>
<path d="M15.8137 19.4696C15.5243 19.4696 15.2349 19.4682 14.9441 19.4667C14.6142 18.8773 14.7777 18.428 15.3333 18.0885C15.75 18.1593 16.2507 18.1478 16.0351 18.821C16.0351 18.8918 16.0365 18.964 16.0423 19.0348C15.9656 19.1792 15.8889 19.3237 15.8123 19.4682L15.8137 19.4696Z" fill="#367DBE"/>
<path d="M2.38599 8.22731C2.52923 8.01206 2.67393 7.79536 2.81718 7.58011C2.96332 7.36485 3.10946 7.1496 3.2556 6.9329C3.40319 6.81877 3.57827 6.73932 3.75769 6.76965C7.2839 7.34896 10.4976 8.57114 12.9993 11.2553L13.0051 11.2524C13.131 11.4503 13.0833 11.6613 13.0616 11.8722C12.969 12.1495 13.063 12.5642 12.5696 12.5512C10.1185 10.403 7.36493 8.87163 4.10641 8.31832C3.52763 8.22009 2.95753 8.26632 2.38599 8.22731Z" fill="#0069B5"/>
<path d="M12.5696 12.5526C12.8822 12.3258 12.7534 11.9863 12.7896 11.6887C13.3814 11.7075 13.5145 12.2044 13.7474 12.5988C13.733 13.1305 13.7677 13.678 13.3134 14.0825C12.7259 14.2573 12.5971 13.7704 12.3656 13.4295C12.4336 13.1377 12.5016 12.8444 12.5696 12.5526Z" fill="#1F78BB"/>
<path d="M12.3656 13.4295C12.6377 13.6404 12.9097 13.8499 13.1803 14.0608C13.5102 14.6546 13.1123 15.0013 12.7389 15.3581C12.4698 15.2035 12.2788 14.9002 11.9142 14.9291C11.9171 14.786 11.92 14.643 11.9229 14.5C12.0603 14.2111 12.1978 13.9221 12.3352 13.6332C12.3454 13.5653 12.3555 13.4988 12.3642 13.4309L12.3656 13.4295Z" fill="#377EBE"/>
<path d="M17.9697 11.251C18.2866 11.225 18.5745 11.3189 18.848 11.4691C18.7771 11.6136 18.7047 11.758 18.6338 11.9039C18.4284 11.9863 18.2837 12.1308 18.2012 12.3359C17.9422 12.5526 17.6658 12.5902 17.3663 12.424C17.0552 11.771 17.333 11.4185 17.9711 11.251H17.9697Z" fill="#74A1D5"/>
<path d="M17.2983 12.3215C17.5992 12.3258 17.9002 12.3301 18.1997 12.3359C18.1274 12.5526 18.055 12.7693 17.9841 12.9846C17.6397 13.1912 17.2968 13.3992 16.8685 13.233C16.6848 12.7765 16.7832 12.4515 17.2968 12.3215H17.2983Z" fill="#6698D0"/>
<path d="M9.75389 1.96472C10.2415 1.75958 10.7219 1.52554 11.2703 1.52987C12.5682 1.57466 13.4537 2.50791 14.5057 3.06554C15.2552 3.46427 15.9656 3.95978 16.6587 4.46252C16.8613 5.00427 16.4533 5.21808 16.1147 5.47089C16.0061 5.50412 15.9063 5.48967 15.8166 5.41889C13.7952 4.2675 11.7738 3.11611 9.75244 1.96472H9.75389Z" fill="#61A2D7"/>
<path d="M15.8166 5.4189C15.8875 5.4189 15.9599 5.4189 16.0308 5.4189C16.3795 5.31922 16.501 5.54025 16.5878 5.81184C16.5705 6.30447 16.1914 6.63674 16.0293 7.0658C15.8513 7.28395 15.8181 7.69134 15.3767 7.56565C15.4187 7.25505 15.3131 6.98057 15.1655 6.71764C15.0483 6.11811 15.601 5.85374 15.8166 5.42179V5.4189Z" fill="#79A4D5"/>
<path d="M17.3373 14.5014C21.1645 14.6242 24.5692 15.9288 27.6266 18.1882C27.9782 18.4482 28.3037 18.7646 27.9406 19.2558C25.1233 16.9328 21.8865 15.5936 18.2663 15.1588C17.864 15.1111 17.4748 15.1443 17.1174 15.361C16.8425 15.5445 16.5589 15.6211 16.255 15.4246C16.132 15.2512 16.1233 15.088 16.2955 14.9377C16.6645 14.8438 17.2085 15.166 17.3373 14.5V14.5014Z" fill="#2580C2"/>
<path d="M16.2102 15.3495C16.5126 15.3538 16.815 15.3581 17.1188 15.3625C17.0465 15.5792 16.9756 15.7944 16.9032 16.0111L16.8917 16.0082C16.6196 16.2336 16.3317 16.2639 16.0264 16.0776C15.8513 15.7756 15.7761 15.4983 16.2116 15.3495H16.2102Z" fill="#257BBE"/>
<path d="M16.6862 4.55644C15.4519 4.33685 14.6547 3.34004 13.5839 2.81129C12.8011 2.42412 12.0502 1.94305 11.2688 1.52988C11.3411 1.45765 11.4149 1.38542 11.4873 1.31319C12.0632 1.23806 12.6391 1.16294 13.2149 1.08926C15.9916 0.60097 18.6294 1.1196 21.1905 2.19298C21.3207 2.24788 21.4669 2.28255 21.4843 2.53681C20.4931 2.69427 19.4744 2.83585 18.6323 3.47294C18.0463 3.94535 17.5297 4.54488 16.6862 4.55788V4.55644Z" fill="#58A1D7"/>
<path d="M23.62 7.15104C23.3277 7.28684 23.0354 7.42119 22.7431 7.55699C22.5753 7.75347 22.3467 7.6899 22.134 7.69857C21.8837 7.61767 21.7057 7.43998 21.5639 7.23194C20.8057 6.12245 19.7682 5.41457 18.4804 5.05052C18.2402 4.98262 17.9943 4.9075 17.8959 4.63446C17.906 4.1505 18.2301 3.99303 18.6382 3.92513C18.9912 3.75899 19.298 3.4744 19.7234 3.4874C20.0967 4.05081 20.771 4.18372 21.2759 4.56511C22.2266 5.28166 22.9095 6.22502 23.62 7.15104Z" fill="#8E9093"/>
<path d="M18.6382 3.92513C18.4182 4.1346 18.1997 4.34408 17.9798 4.55355C17.7367 5.15309 17.2766 5.55614 16.7557 5.90719C16.6501 5.93753 16.5546 5.92164 16.4677 5.8523C16.3838 5.64571 16.2391 5.4998 16.0308 5.41746C16.2493 5.12997 16.4677 4.84248 16.6862 4.555C17.3374 4.19817 17.8496 3.59141 18.6324 3.47006C18.6338 3.62175 18.6367 3.77344 18.6382 3.92368V3.92513Z" fill="#7DABD9"/>
<path d="M22.1021 7.55844C22.3148 7.55844 22.529 7.55844 22.7417 7.55844C22.7417 7.62201 22.7417 7.68413 22.7417 7.74769C21.4177 8.32556 20.0474 8.82974 19.0519 9.95513C18.4978 10.2282 18.3154 10.8089 17.9667 11.2524C17.7425 11.6093 17.5196 11.9661 17.2953 12.3244C17.0479 12.5642 16.9857 12.8806 16.9278 13.1984C16.9712 13.2749 16.9553 13.3327 16.8728 13.3674C16.5589 13.847 16.4359 14.3989 16.2941 14.9421C16.2651 15.0793 16.2362 15.2151 16.2072 15.3524C15.9974 15.517 16.022 15.7713 15.9642 15.9923C16.119 16.4113 15.9034 16.7927 15.8441 17.19C15.7413 17.5352 15.6994 17.9123 15.3506 18.129C15.1293 18.5508 14.9093 18.9712 14.9426 19.4696C14.6662 20.0229 14.3146 20.5473 14.2524 21.1873C14.2336 21.3939 14.1121 21.5196 13.9283 21.5976C13.4363 21.7522 12.9429 21.7059 12.4481 21.6077C11.1632 21.4112 9.87974 21.4734 8.5963 21.6164C8.10434 21.6713 7.5979 21.8259 7.16671 21.4286C7.09292 21.3607 7.02057 21.2913 6.94678 21.2234C7.08713 21.1396 7.22749 21.0559 7.36784 20.9706C8.94646 20.4448 10.2704 19.5736 11.2051 18.1709C11.4323 17.5063 12.1789 17.1712 12.3077 16.4431C12.4524 16.0819 12.5971 15.7222 12.7418 15.361C12.6651 14.854 13.2178 14.5578 13.1831 14.0637C13.3351 13.561 13.4884 13.0568 13.6404 12.5541C13.4855 12.0297 13.7069 11.6251 14.0498 11.2582C14.128 10.9707 14.2076 10.6847 14.2857 10.3972C14.4796 10.1429 14.5461 9.84967 14.5592 9.53907C14.7617 9.3686 14.7458 9.12156 14.7892 8.89475C14.85 8.74884 14.9093 8.60437 14.9701 8.45846C15.0352 8.30822 15.1018 8.15942 15.1669 8.00918C15.2363 7.93405 15.3072 7.85893 15.3767 7.78381C15.8484 7.41398 16.3664 7.20884 16.9814 7.3143C18.5571 7.58734 20.1473 7.48477 21.7331 7.4891C21.8619 7.48766 21.9864 7.51077 22.105 7.56133L22.1021 7.55844Z" fill="#FEFEFE"/>
<path d="M16.8743 13.3645C16.87 13.3009 16.8888 13.2446 16.9293 13.1955C17.2505 12.9788 17.6137 12.9672 17.9827 12.9845C17.7367 13.4728 17.4979 13.9799 16.8729 13.3645H16.8743Z" fill="#5E96CF"/>
<path d="M11.7014 28.113C10.9794 27.8977 10.2559 27.6839 9.53392 27.4687C8.94646 27.2433 8.359 27.0194 7.52411 26.7001C10.227 26.3231 12.2571 25.2193 13.8675 23.3586C17.2722 22.2751 20.2775 23.0466 22.9645 25.3031C22.0587 26.0659 21.0285 26.612 19.9331 27.0439V27.0281C18.0767 26.0905 16.1624 25.92 14.1916 26.612C13.3611 26.9038 12.6391 27.3618 12.1355 28.1072C11.9908 28.1072 11.8461 28.1101 11.7029 28.1115L11.7014 28.113Z" fill="#3B7BB7"/>
<path d="M7.16676 21.4242C8.97834 21.3274 10.7899 21.0732 12.6044 21.3924C12.5422 21.4863 12.4582 21.5528 12.3541 21.5961C11.6291 21.7406 10.9086 21.7652 10.1996 21.4907C11.1994 21.9154 12.3338 22.1133 12.9777 23.1333C12.8996 23.4901 12.4988 23.5262 12.3251 23.7891C11.7854 24.0911 11.4454 23.6475 11.075 23.4222C9.90005 22.7042 8.65712 22.2014 7.27673 22.0628C6.98879 22.0339 6.60824 22.1292 6.52142 21.6799C6.73412 21.5904 7.00904 21.6568 7.16532 21.4257L7.16676 21.4242Z" fill="#808184"/>
<path d="M22.9645 25.3031C21.9126 25.1948 21.3222 24.2514 20.3398 23.922C18.3155 23.243 16.3317 22.8472 14.2409 23.4915C14.0817 23.5406 13.9645 23.4785 13.8676 23.3586C13.8676 23.2878 13.869 23.217 13.8704 23.1463C13.9645 22.9064 14.1468 22.7634 14.3841 22.6796C17.4213 21.9746 20.1849 22.5742 22.6809 24.4277C22.9139 24.601 23.1338 24.7787 23.1845 25.0879C23.1107 25.1587 23.0369 25.2309 22.9645 25.3017V25.3031Z" fill="#357AB8"/>
<path d="M12.9777 23.1332C11.985 22.6031 10.9924 22.0729 9.83344 21.4546H12.383C12.9039 21.5831 13.3452 21.8432 13.6924 22.2549C13.7503 22.4933 13.6129 22.6146 13.4219 22.7042C13.2743 22.8472 13.1252 22.9902 12.9777 23.1332Z" fill="#727477"/>
<path d="M6.52286 21.6799C8.57319 22.0657 10.5468 22.6637 12.3266 23.7891C12.2586 23.8599 12.192 23.9321 12.124 24.0044C11.2356 24.1402 10.719 23.3514 9.96949 23.1434C9.301 22.4976 8.40968 22.4326 7.57045 22.2982C6.98299 22.2043 6.39987 22.1379 5.85437 21.888C6.06128 21.7666 6.2653 21.638 6.52286 21.6799Z" fill="#838589"/>
<path d="M13.4219 22.7042C13.4841 22.5612 13.5463 22.4167 13.6085 22.2737C13.4711 21.8287 13.8198 21.6337 14.0672 21.3867C14.1294 21.3188 14.1917 21.2523 14.2539 21.1844C14.5085 21.2075 14.7892 21.1541 14.9585 21.4257C15.0699 21.5326 15.096 21.6655 15.0772 21.8114C15.0338 21.9963 14.9513 22.1639 14.8645 22.33C14.7516 22.5987 14.5302 22.7678 14.2987 22.9252C14.1569 22.9989 14.0137 23.0726 13.8719 23.1463C13.7865 22.9325 13.636 22.7865 13.4233 22.7027L13.4219 22.7042Z" fill="#5689C2"/>
<path d="M9.96802 23.1419C10.8434 23.0393 11.3108 23.9524 12.1225 24.0029C12.0444 24.1748 11.8925 24.2196 11.7246 24.237C11.1516 23.8527 10.3818 23.7804 9.96802 23.1419Z" fill="#86878B"/>
<path d="M12.9994 11.2553C11.8983 10.8884 11.1748 9.95944 10.2299 9.35124C8.38651 8.16662 6.3984 7.54975 4.29888 7.14092C3.95161 7.07302 3.60435 7.00223 3.25708 6.93289C3.4611 6.47349 3.86046 6.44315 4.26416 6.52549C7.25789 7.12936 10.0462 8.20274 12.4365 10.1617C12.778 10.442 13.0746 10.7554 13.0008 11.2553H12.9994Z" fill="#0A76BC"/>
<path d="M14.0484 11.2539C13.9124 11.6858 13.7749 12.1178 13.6389 12.5497C13.2236 12.3922 13.0992 11.9502 12.7896 11.6873C12.8619 11.5413 12.9328 11.3969 13.0051 11.251C13.3539 10.6861 13.7011 11.2697 14.0484 11.2524V11.2539Z" fill="#2677B7"/>
<path d="M21.9198 7.61621C20.4468 7.97737 18.9507 7.82857 17.4777 7.69422C16.7528 7.62777 16.0713 7.62199 15.3753 7.7809C15.3695 7.70867 15.3709 7.63643 15.3753 7.56565C15.5258 7.35617 15.6762 7.1467 15.8267 6.93722C16.8295 6.13688 17.893 6.31169 18.9492 6.77975C19.5034 7.02534 20.0156 7.37351 20.6653 7.26516C21.111 7.28105 21.5769 7.23337 21.9184 7.61765L21.9198 7.61621Z" fill="#C9CACC"/>
<path d="M12.1356 28.1086C11.891 27.7287 12.1703 27.525 12.4047 27.3069C14.0253 25.8044 17.8018 25.4346 19.6727 26.5903C19.8435 26.6958 19.91 26.8446 19.9332 27.028C19.7161 27.1003 19.4991 27.1739 19.2806 27.2462C16.9148 26.5296 14.6851 26.8749 12.5711 28.1072C12.425 28.1072 12.2803 28.1072 12.1341 28.1072L12.1356 28.1086Z" fill="#3379B4"/>
<path d="M12.5711 28.1087C14.62 26.3664 16.8526 26.0515 19.2806 27.2476C18.9174 27.3892 18.5557 27.5308 18.1925 27.6709C16.8526 27.3863 15.5402 27.5004 14.1859 27.9627C14.5114 27.892 14.7647 27.8818 14.9557 28.1173C14.1584 28.701 13.3655 27.9194 12.5696 28.1087H12.5711Z" fill="#2B78B3"/>
<path d="M14.9571 28.1173C14.6503 28.1 14.3436 28.0826 13.9703 28.0624C15.0859 27.0858 17.2577 26.9139 18.1925 27.6709C17.9783 27.746 17.7627 27.8226 17.5486 27.8977C16.6819 27.9353 15.8368 28.2387 14.9556 28.1173H14.9571Z" fill="#2276B1"/>
<path d="M14.2988 22.9252C14.442 22.7085 14.5838 22.4918 14.7271 22.2751C15.7168 21.6929 16.7499 21.8244 17.8409 21.9501C19.8304 22.1798 21.5523 22.9498 23.1251 24.1301C23.3234 24.2789 23.5375 24.419 23.6359 24.666C23.4854 24.8076 23.3364 24.9477 23.1859 25.0893C21.0358 23.4395 18.6642 22.4571 15.8919 22.7128C15.3594 22.762 14.8298 22.853 14.2988 22.9252Z" fill="#2E79B8"/>
<path d="M15.1698 21.4141C15.1727 21.2379 15.2074 21.0761 15.3796 20.9807C18.845 20.6831 21.8692 21.7088 24.4708 24.0001C24.4042 24.0752 24.3362 24.1503 24.2697 24.2254C23.8688 24.4753 23.5939 24.2081 23.3089 23.9914C21.2658 22.4369 18.9999 21.5615 16.391 21.6929C15.9714 21.7146 15.5142 21.7753 15.1698 21.4127V21.4141Z" fill="#1875B7"/>
<path d="M15.1698 21.4141C17.9812 21.1887 20.5973 21.7218 22.9616 23.3384C23.3957 23.6345 23.6504 24.2066 24.2696 24.2268C24.1958 24.2976 24.1206 24.3684 24.0468 24.4392C23.5881 24.6949 23.2901 24.3323 22.9992 24.1185C20.7709 22.4788 18.301 21.7377 15.5344 22.0368C15.3145 22.0599 15.1047 22.0266 14.947 21.8446C14.9499 21.7045 14.9527 21.5644 14.9571 21.4242C15.028 21.4199 15.0989 21.4155 15.1698 21.4141Z" fill="#2177B8"/>
<path d="M14.9484 21.8461C17.4372 21.6727 19.8261 21.9732 22.05 23.2098C22.7359 23.5912 23.2264 24.2846 24.0468 24.4392C23.96 24.6082 23.8066 24.6559 23.6344 24.666C23.2004 24.6631 22.8965 24.3598 22.61 24.1257C20.9301 22.7461 18.9073 22.3343 16.8439 22.0916C16.1552 22.0107 15.4331 22.2072 14.7256 22.2766C14.7357 22.1003 14.7762 21.94 14.947 21.8461H14.9484Z" fill="#2978B8"/>
<path d="M15.3521 18.1261C15.4476 17.7808 15.5431 17.437 15.6386 17.0917C15.9164 16.8635 16.1928 16.8403 16.4706 17.0917C16.4677 17.3792 16.4648 17.6667 16.4619 17.9542C16.1204 18.1449 16.3809 18.6317 16.0365 18.821C16.0626 18.3399 15.491 18.4453 15.3521 18.1246V18.1261Z" fill="#1D77BB"/>
<path d="M16.4706 17.0931C16.1928 17.0931 15.9164 17.0931 15.6386 17.0931C15.7471 16.7262 15.8571 16.3578 15.9656 15.9909C16.2738 15.9967 16.582 16.0024 16.8902 16.0097C16.8222 16.2986 16.7542 16.5875 16.6862 16.8764C16.6139 16.9487 16.5415 17.0224 16.4692 17.0946L16.4706 17.0931Z" fill="#2676B6"/>
<path d="M20.5858 7.57577C20.1676 7.56132 19.748 7.64511 19.3645 7.3504C18.275 6.5125 17.0653 6.58762 15.8282 6.93723C16.0423 6.57606 16.255 6.2149 16.4677 5.85374C16.5343 5.85085 16.6023 5.84796 16.6689 5.84651C18.2243 5.28021 20.2009 6.15422 20.5858 7.57577Z" fill="#B9BBBE"/>
<path d="M20.5857 7.57577C19.6452 6.17734 18.2287 5.85085 16.6703 5.84651C17.0291 5.33655 17.456 4.89738 17.9812 4.55499C19.6987 5.08663 21.2137 5.89708 22.1036 7.55987C22.0471 7.59455 21.9864 7.61477 21.9198 7.61766C21.4756 7.60466 21.0314 7.59021 20.5857 7.57721V7.57577Z" fill="#ACAEB1"/>
<path d="M14.0672 21.3867C13.9153 21.6828 13.7619 21.9775 13.6085 22.2737C13.063 22.2029 12.8113 21.6958 12.3815 21.4546C12.4553 21.4343 12.5291 21.4141 12.6029 21.3939C13.0905 21.3924 13.5796 21.3895 14.0672 21.3881V21.3867Z" fill="#6B6E71"/>
</g>
<defs>
<clipPath id="clip0_2984_33770">
<rect width="191" height="29" fill="white"/>
</clipPath>
</defs>
</svg>
