<svg width="204" height="201" viewBox="0 0 204 201" fill="none" xmlns="http://www.w3.org/2000/svg">
<path d="M2.83691 123.099C-0.36309 116.299 -0.233089 109.089 0.276911 101.839C8.35691 95.2387 17.0369 99.5887 25.1269 101.199C42.6469 104.689 55.9969 114.959 66.1769 129.479C65.8169 137.669 58.7569 139.089 53.3469 142.179C51.9269 142.729 50.4869 143.149 48.9469 142.649C44.9669 140.459 42.3169 136.759 39.0369 133.779C28.6869 124.369 16.6869 120.619 2.83691 123.109V123.099Z" fill="#3A7BB7"/>
<path d="M202.337 86.4388C204.367 93.6988 204.317 100.949 202.307 108.199C183.167 94.0588 162.007 84.6688 138.397 81.0288C136.177 80.6888 134.007 80.0988 132.147 78.7288C130.027 74.6388 133.737 72.5888 135.277 69.7688C136.907 68.1588 138.567 66.5888 141.137 66.9088C152.257 71.0788 164.287 72.2788 175.127 77.5288C181.577 80.6488 188.547 82.7188 194.477 86.9088C197.277 88.8888 199.867 89.1388 202.337 86.4388V86.4388Z" fill="#669FD5"/>
<path d="M179.757 53.9187C192.367 57.6887 197.437 67.7087 200.717 79.2087C202.157 83.0887 201.377 85.0987 196.787 83.8187C194.867 83.2787 193.077 82.3887 191.357 81.4287C180.477 75.3387 168.707 71.5087 156.937 67.5987C153.687 66.5187 149.187 66.2187 149.507 60.9087C158.137 52.2987 168.487 51.1287 179.757 53.9187V53.9187Z" fill="#59A2D7"/>
<path d="M1.25684 93.9188C1.28684 90.9288 1.08684 87.8988 2.94684 85.2588C32.6068 84.4988 56.6268 95.8088 75.1368 118.939C75.8068 120.569 75.2468 122.009 74.4968 123.439C72.9568 125.719 71.5868 128.249 68.1868 127.949C63.9168 125.659 61.2568 121.629 57.9768 118.309C44.7268 104.899 28.5468 98.6688 9.94684 97.7188C6.82684 97.5588 2.18684 99.5988 1.26684 93.9188H1.25684Z" fill="#2778B8"/>
<path d="M5.84719 76.0088C6.12719 73.2588 7.02719 70.7488 8.85719 68.6288C12.5472 72.8988 17.7972 72.2188 22.6072 72.9388C46.3872 76.5088 66.4172 86.7388 81.4772 105.879C82.2372 107.889 81.7372 109.749 80.7872 111.549C79.9172 112.929 78.9072 114.139 77.1272 114.339C73.6572 113.749 71.6072 111.089 69.3872 108.809C55.4672 94.5588 38.6672 86.2488 18.8472 84.0388C15.8872 83.7088 12.9672 83.0088 9.99719 82.6588C5.86719 82.1688 4.26719 80.0588 5.84719 75.9988V76.0088Z" fill="#016EB4"/>
<path d="M188.867 144.269C186.267 150.259 182.277 155.289 177.897 160.049C175.517 161.869 173.487 164.499 169.887 163.589C158.037 155.319 145.927 147.579 131.347 144.909C123.577 143.489 115.527 143.809 107.917 141.329C105.997 139.099 107.037 136.809 107.767 134.529C108.407 133.059 109.337 131.819 110.727 130.959C119.607 128.409 127.737 132.679 136.117 134.079C149.257 136.279 160.857 142.539 171.367 150.609C175.227 153.579 178.237 154.279 181.047 149.669C182.997 147.629 184.417 145.199 186.087 142.939C186.897 142.149 187.767 141.629 188.927 142.199C189.197 142.899 189.167 143.579 188.857 144.259L188.867 144.269Z" fill="#016EB5"/>
<path d="M14.9273 58.2988C14.9473 57.8388 15.0273 57.3988 15.1973 56.9688C15.7673 56.4288 16.4173 55.9888 17.1273 55.6388C35.4573 54.3288 51.5573 61.1188 66.8673 69.9688C74.4973 74.3788 82.4773 78.6988 87.5873 86.4488C88.5773 88.9088 88.1773 91.1988 86.7873 93.3788C86.3173 94.0488 85.6873 94.5188 84.9273 94.8088C80.3573 94.4888 77.3773 91.2188 74.1173 88.6688C58.0773 76.0988 40.0573 68.4888 19.7473 66.2488C13.2773 65.5388 12.7073 64.3688 14.9173 58.2888L14.9273 58.2988Z" fill="#0063AB"/>
<path d="M200.797 115.729C200.687 119.419 199.707 122.859 197.737 125.999C195.187 118.059 188.817 114.039 182.067 110.129C166.827 101.319 150.677 95.3288 133.137 93.2588C130.157 92.9088 127.207 92.5088 124.757 90.5388C123.207 88.7088 123.887 86.7888 124.517 84.8588C125.467 82.9088 126.897 81.6088 129.137 81.3688C153.077 85.1488 175.887 91.9388 195.887 106.289C199.137 108.619 202.787 110.689 200.797 115.719V115.729Z" fill="#5E96CF"/>
<path d="M49.3668 19.4487C49.9468 19.0087 50.5168 18.5787 51.0968 18.1387C56.5568 16.8587 61.0968 12.7887 66.9968 12.8287C82.1968 19.2487 97.0168 26.3387 109.627 37.2887C109.737 41.3987 106.987 44.0787 104.747 47.0187C101.667 48.1187 99.4368 46.2187 97.2368 44.6887C83.4268 35.0587 68.6268 27.4987 52.4368 22.7287C50.8968 22.2787 48.7868 22.0287 49.3768 19.4387L49.3668 19.4487Z" fill="#669FD5"/>
<path d="M188.867 144.269C188.787 143.599 188.707 142.919 188.617 142.249C171.317 125.059 150.127 116.509 126.127 114.269C122.657 113.949 119.117 114.009 116.577 111.029C115.427 108.909 116.197 107.159 117.597 105.519C119.727 103.449 122.397 102.869 125.187 103.139C149.877 105.499 172.067 114.079 191.387 129.779C192.167 130.409 192.737 131.239 193.267 132.079C193.617 132.769 193.767 133.509 193.707 134.279C192.017 136.709 191.357 139.599 190.137 142.249C189.707 142.919 189.277 143.599 188.847 144.269H188.867Z" fill="#0373BB"/>
<path d="M5.8469 76.0088C5.9969 78.6288 6.3469 80.7488 9.8769 80.9288C36.2969 82.2688 58.4569 92.6088 75.9769 112.589C76.4469 113.119 77.1969 113.409 77.8169 113.809C79.5569 117.209 77.6869 118.749 74.7569 119.739C65.0969 111.769 56.9769 102.219 45.2569 96.3888C33.6169 90.5988 21.5769 88.4188 9.1069 86.9188C6.9569 86.6588 4.5669 87.4588 2.9369 85.2788C2.6769 81.8088 4.0269 78.8388 5.8469 76.0288V76.0088Z" fill="#0D73B6"/>
<path d="M120.007 1.51867C138.237 2.34867 154.317 9.00867 169.037 19.4287C167.727 21.1887 165.777 21.2587 163.847 21.4287C162.727 21.4987 161.607 21.4887 160.487 21.4687C159.397 21.4887 158.307 21.4687 157.227 21.4387C155.817 21.4387 154.407 21.4087 152.997 21.4087C151.977 21.4387 150.947 21.4287 149.927 21.4387C147.907 21.4587 145.967 21.9187 144.067 22.5787C141.427 23.3587 138.987 24.6787 136.417 25.6387C133.697 26.1087 131.247 28.8387 128.197 26.6887C127.657 25.6487 127.587 24.5587 127.907 23.4487C131.427 18.0787 137.767 18.4487 143.347 15.9287C128.377 10.8587 113.797 6.47867 98.107 8.99867C95.887 9.35867 93.657 9.54867 91.637 8.16867C90.417 3.29867 96.337 4.56867 97.317 1.57867V1.59867C104.867 0.438672 112.437 0.528672 120.017 1.53867L120.007 1.51867Z" fill="#76AEDD"/>
<path d="M124.287 89.8788C148.347 92.3188 170.667 99.5588 190.857 113.209C195.737 116.509 198.407 120.139 197.747 125.999C197.297 127.099 196.857 128.189 196.407 129.289C187.057 116.809 173.477 110.809 159.537 105.479C149.997 101.829 140.027 99.7788 129.947 98.2388C126.317 97.6788 122.917 97.6588 121.367 101.929C119.167 104.959 116.347 105.689 112.937 104.209C110.127 99.7288 112.937 96.3288 115.157 92.8288C117.857 91.8688 121.117 92.5588 123.337 90.0988C123.657 90.0188 123.977 89.9488 124.297 89.8788H124.287Z" fill="#4D8DCA"/>
<path d="M200.797 115.729C201.287 111.679 198.167 110.159 195.547 108.359C177.877 96.1988 158.617 88.0788 137.217 85.2188C134.327 84.8288 131.577 83.3588 128.767 82.3888C127.897 81.0288 128.597 79.8788 129.247 78.7188C129.917 77.9588 130.647 77.3388 131.757 77.8888C154.517 80.6688 175.557 88.3088 194.887 100.569C197.837 102.439 202.047 103.509 202.307 108.189C202.197 110.779 202.597 113.469 200.797 115.719V115.729Z" fill="#649BD3"/>
<path d="M27.3271 39.1389C28.1071 37.0389 29.8071 35.7789 31.5271 34.5489C33.0571 33.2489 34.7671 33.5789 36.4771 34.0089C54.6571 38.6289 72.1871 44.8889 87.3471 56.2289C91.8771 59.6189 98.0671 60.5989 101.207 65.9189C101.997 68.4789 101.497 70.6389 99.2071 72.2289C93.2071 72.1689 88.1971 69.5089 83.6771 65.9189C69.5271 54.6989 53.2571 48.1789 35.8771 44.0589C32.5471 43.2689 28.7971 43.1789 27.3371 39.1389H27.3271Z" fill="#4187C7"/>
<path d="M149.737 61.4587C150.687 63.9287 152.977 64.2587 155.117 64.9387C169.107 69.3787 182.977 74.1387 195.787 81.4687C198.467 82.9987 201.017 84.2087 200.707 79.2187C202.597 81.3287 202.267 83.9387 202.337 86.4487C202.157 90.4287 202.717 94.2287 196.467 90.2287C181.307 80.5187 164.447 74.7187 146.947 70.7487C144.537 70.1987 141.887 70.3087 140.747 67.4587C141.777 62.5187 145.117 61.0487 149.727 61.4687L149.737 61.4587Z" fill="#61A2D7"/>
<path d="M14.9272 58.2988C14.5572 61.1888 13.3772 64.2288 18.3472 64.4788C40.0472 65.5888 58.7172 74.4488 75.7472 87.3588C78.8872 89.7388 82.0872 92.0288 85.2672 94.3588C86.3672 97.4488 85.6672 99.7888 82.4672 101.099C77.8772 100.649 75.1272 97.0988 71.9972 94.4688C56.3572 81.3188 38.2872 74.0688 18.1972 71.1488C15.1072 70.6988 9.11716 72.7088 10.3472 65.5588C11.1872 62.6988 11.5672 59.5688 14.9272 58.2988V58.2988Z" fill="#0066B1"/>
<path d="M64.4471 195.839C53.9971 193.409 44.6771 188.509 35.7871 182.669C35.8971 179.589 38.1971 180.109 39.9971 180.319C45.8971 180.989 51.5771 179.919 57.2171 178.479C59.2571 177.799 61.2771 177.039 63.3771 176.559C65.9671 176.099 68.3571 175.109 70.6471 173.849C72.8071 172.679 74.8271 171.289 76.8371 169.899C78.0071 169.009 79.0871 167.999 80.2771 167.139C81.2271 166.509 82.2571 165.969 83.1071 165.179C83.6971 164.509 84.2471 163.809 84.8271 163.129C86.1471 161.749 87.5771 160.479 88.7071 158.919C89.8571 157.529 91.1371 156.369 93.0971 156.379C95.1371 156.769 96.3171 158.029 96.7771 160.009C96.8371 160.729 96.7771 161.449 96.5871 162.159C89.5171 173.559 78.2471 179.059 66.3071 183.589C63.7871 184.549 61.0871 185.009 58.1771 185.539C61.1171 186.429 63.9371 187.029 66.1371 189.019C68.8871 192.119 67.9371 194.299 64.4371 195.849L64.4471 195.839Z" fill="#5C8BC1"/>
<path d="M119.817 100.379C121.137 95.6187 124.817 95.3487 128.697 95.9387C150.227 99.2187 170.637 105.539 188.627 118.289C192.497 121.039 196.427 123.769 196.407 129.279C196.017 131.959 195.047 134.389 193.247 136.459C192.777 136.119 192.577 135.749 192.647 135.329C192.727 134.889 192.827 134.669 192.967 134.669C193.017 134.209 193.057 133.759 193.097 133.299C192.517 129.809 190.077 127.749 187.417 125.789C169.347 112.459 148.897 105.359 126.817 102.479C124.367 102.159 121.787 102.289 119.817 100.379V100.379Z" fill="#3F86C6"/>
<path d="M27.3273 39.1387C36.7073 43.7687 47.3473 44.3087 56.9273 48.5287C65.1473 52.1387 73.3973 55.6287 80.3273 61.3187C85.9373 65.9187 92.5873 68.4187 98.7173 71.9487C100.567 74.0587 99.3373 75.8887 98.1973 77.7187C95.6073 80.3187 92.6173 76.7487 89.9373 78.2387C89.3473 77.8787 88.8473 77.4187 88.4473 76.8587C82.8773 68.3787 74.0873 63.8687 65.6573 59.2587C54.6873 53.2687 42.6673 49.8087 30.3873 47.4387C28.1373 47.0087 25.8973 46.7987 24.2673 48.9587C22.8273 50.5287 21.5673 52.3187 19.4073 53.0387C18.6573 53.0787 18.0073 52.8387 17.4873 52.2787C19.9373 47.2787 23.4173 43.0487 27.3373 39.1487L27.3273 39.1387Z" fill="#1A79BE"/>
<path d="M1.25683 93.9188C6.71683 98.1688 13.1768 95.2488 19.1368 96.2988C40.0168 99.9788 56.0768 110.929 68.9068 127.289C69.3268 129.679 68.3068 130.649 65.9368 130.289C57.9868 124.169 52.4668 115.489 43.2568 110.489C29.6468 103.099 15.7168 99.1888 0.266835 101.839C0.0568349 99.1288 -0.393165 96.3988 1.24683 93.9188H1.25683Z" fill="#357AB8"/>
<path d="M10.3472 65.5588C10.6072 67.4888 11.4572 68.7388 13.6272 68.8788C40.5472 70.6388 62.7472 82.7288 82.4072 100.359C83.2572 101.119 83.3972 102.089 83.2172 103.149C82.7972 104.499 82.1372 105.669 80.7972 106.329C73.1372 100.519 67.2872 92.7288 58.6972 87.7788C44.9572 79.8588 30.6272 74.5888 14.7172 74.3488C10.4772 74.2888 8.88719 72.5088 8.86719 68.6288C8.89719 67.3788 9.15719 66.2488 10.3472 65.5588V65.5588Z" fill="#006AB3"/>
<path d="M100.617 65.9987C78.9671 52.4887 57.0671 39.5287 31.5371 34.5387C31.9771 33.0387 33.0671 32.1487 34.4071 31.4987C37.4371 29.2787 40.5371 30.4087 43.6671 31.2687C60.2571 35.8587 76.0771 42.0387 89.6971 52.9287C93.7071 56.1387 99.7471 56.2387 102.617 61.2587C103.017 63.2887 103.567 65.3787 100.617 65.9987Z" fill="#4E8DCA"/>
<path d="M71.8671 174.999C69.4371 176.189 67.2471 177.979 64.3671 178.089C54.7071 174.839 44.7871 173.759 34.6271 174.209C31.7071 174.339 28.7071 174.719 25.8771 173.479C24.0971 171.339 23.4171 168.919 24.0371 166.169C29.4071 161.069 36.1571 162.699 42.4571 162.599C51.0171 162.459 59.1971 164.639 66.8971 168.249C69.4871 169.469 73.5171 170.349 71.8471 174.999H71.8671Z" fill="#989A9E"/>
<path d="M71.8669 174.999C65.0869 166.309 54.8269 166.189 45.3569 164.879C38.3469 163.899 31.0669 164.289 24.0469 166.179C23.3369 161.449 26.7269 159.339 29.8769 157.079C44.5169 155.699 58.6869 157.269 71.9369 164.089C74.6669 165.489 78.2969 166.349 77.8669 170.699C75.8669 172.139 73.8569 173.579 71.8569 175.019L71.8669 174.999Z" fill="#8F9194"/>
<path d="M49.3671 19.4487C69.4871 25.0987 87.087 35.9187 104.807 46.4887C107.487 47.4787 107.857 49.7087 107.867 52.1487C107.807 52.9287 107.607 53.6787 107.277 54.3887C106.607 55.4287 105.737 56.0587 104.417 55.6787C90.747 45.4687 76.9871 35.5287 60.6571 29.6187C54.8871 27.5287 48.5771 27.2387 43.2271 23.9787C44.7371 21.7487 46.9671 20.4787 49.3671 19.4587V19.4487Z" fill="#659CD3"/>
<path d="M43.2269 23.9687C67.5369 27.0587 87.6169 38.4087 104.807 55.4087C106.077 56.9487 105.537 58.0187 103.917 58.8187C103.177 58.6987 102.527 58.3787 101.957 57.8887C86.0969 45.0287 68.3169 35.7987 48.8969 29.5887C46.1669 28.7187 42.7669 28.8187 41.5469 25.2987C42.1069 24.8487 42.6669 24.4087 43.2169 23.9587L43.2269 23.9687Z" fill="#6299D1"/>
<path d="M102.197 61.5389C82.5972 51.2789 64.8172 37.2189 42.3572 32.8589C39.7072 32.3489 37.1772 31.2889 34.4072 31.5089C35.4872 30.5389 36.5772 29.5789 37.6572 28.6089C39.9672 26.4189 42.3172 27.9089 44.6572 28.5289C61.9072 33.0889 78.0572 40.1289 92.3472 50.8489C95.8772 53.4989 101.167 53.5689 103.167 58.3189L103.447 58.5289C104.367 60.0889 104.107 61.1589 102.197 61.5489V61.5389Z" fill="#5792CD"/>
<path d="M103.167 58.3188C83.587 47.5388 65.207 34.2588 42.707 29.5988C41.027 29.2488 39.337 28.9388 37.647 28.5988C38.377 26.8388 39.327 25.3188 41.537 25.2988C61.787 30.9488 80.447 39.9588 97.737 51.8788C100.197 53.5788 103.117 54.6688 103.157 58.3088L103.167 58.3188Z" fill="#5E95CF"/>
<path d="M2.83729 123.099C9.09729 115.709 16.3273 121.269 22.5873 122.439C34.2873 124.629 42.1973 133.249 49.4273 142.209C48.5173 144.459 46.8173 144.969 44.6273 144.379C36.1973 136.259 27.0173 129.569 15.1873 127.029C11.1773 126.169 6.64729 127.329 3.14729 124.279C2.79729 123.949 2.69729 123.549 2.84729 123.089L2.83729 123.099Z" fill="#3379B4"/>
<path d="M136.307 24.1388C138.687 22.8588 140.947 21.2487 143.817 21.2188C153.337 25.2088 160.067 32.3688 165.807 40.6288C167.477 43.0388 167.887 45.6488 166.307 48.3288C165.797 48.7888 165.287 49.2588 164.787 49.7188C164.177 50.1388 163.507 50.3287 162.767 50.2587C159.487 49.0387 158.397 45.7687 156.387 43.3687C151.947 38.0587 146.937 33.4388 140.957 29.8688C138.817 28.5888 135.667 27.8288 136.317 24.1588L136.307 24.1388Z" fill="#7E7F83"/>
<path d="M3.12695 124.289C20.087 124.289 34.637 129.449 44.937 143.749C44.967 146.879 42.757 146.289 40.857 146.229C30.597 137.899 19.737 130.869 5.87695 130.509C4.15695 128.789 3.31695 126.689 3.12695 124.299V124.289Z" fill="#2B78B3"/>
<path d="M122.797 196.149C108.607 201.349 94.107 201.839 79.387 199.039C78.447 196.939 79.417 195.379 80.847 193.949C81.857 193.319 82.957 192.999 84.127 192.849C85.287 192.689 86.447 192.639 87.617 192.649C92.997 192.339 98.257 195.419 103.697 193.139C109.387 192.889 114.967 190.949 120.747 192.069C122.367 192.959 123.417 194.139 122.807 196.159L122.797 196.149Z" fill="#4B86BC"/>
<path d="M25.897 173.479C39.137 171.619 52.387 169.619 64.377 178.089C62.427 178.629 60.487 179.159 58.537 179.699C48.917 180.859 39.357 181.019 29.967 178.149C28.047 177.079 26.607 175.599 25.897 173.479V173.479Z" fill="#A3A5A8"/>
<path d="M149.737 61.4588C146.427 62.9788 143.347 64.8588 140.757 67.4488C139.267 68.4488 137.767 69.4488 136.277 70.4488C134.197 71.1588 132.587 70.5288 131.387 68.7388C131.427 64.8888 134.487 63.3788 137.107 61.7388C143.327 57.8388 149.877 54.5388 156.747 51.9288C160.277 49.7588 164.197 52.4188 167.787 51.0288C171.947 51.3188 176.097 51.6288 179.767 53.9288C168.817 52.6788 158.967 55.8388 149.747 61.4688L149.737 61.4588Z" fill="#80AEDD"/>
<path d="M77.8772 170.679C68.0972 161.949 55.9872 159.909 43.5572 158.659C38.9972 158.199 34.1172 160.289 29.8872 157.069C31.0172 155.489 32.6272 154.679 34.4572 154.219C45.6972 152.399 56.3672 154.969 66.9272 158.399C67.6572 158.579 68.3572 158.849 69.0372 159.189C72.7272 162.479 78.4772 162.909 81.0372 167.789C79.9872 168.759 78.9372 169.719 77.8872 170.689L77.8772 170.679Z" fill="#8A8C8F"/>
<path d="M170.857 163.599C173.207 162.419 175.557 161.229 177.907 160.049C167.327 174.049 153.827 184.279 137.737 191.179C136.527 189.999 136.567 188.629 137.117 187.179C143.077 181.979 150.687 179.409 156.987 174.749C157.737 174.199 158.497 173.649 159.217 173.059C160.317 172.119 161.367 171.109 162.537 170.239C163.427 169.639 164.407 169.199 165.297 168.609C165.897 168.139 166.467 167.639 166.977 167.079C167.447 166.469 167.877 165.829 168.297 165.179C168.937 164.309 169.607 163.479 170.857 163.589V163.599Z" fill="#5E8DC2"/>
<path d="M5.87695 130.499C10.137 126.489 14.537 130.139 18.447 130.909C27.427 132.699 34.707 137.989 40.437 145.219C39.557 147.449 37.877 147.959 35.707 147.409C28.047 139.139 17.387 136.879 7.38695 133.299C6.18695 132.739 5.92695 131.679 5.87695 130.499V130.499Z" fill="#2377B2"/>
<path d="M166.307 48.3187C164.867 37.6587 156.647 32.1587 149.197 26.1687C147.267 24.6187 144.977 23.5687 143.817 21.2187C145.667 20.1087 147.607 19.3687 149.817 19.7887C159.997 25.8187 166.737 34.9087 172.307 45.0387C170.307 46.1387 168.307 47.2287 166.307 48.3287V48.3187Z" fill="#737477"/>
<path d="M163.237 19.6387C165.177 19.5687 167.107 19.4887 169.047 19.4187C178.357 24.8387 180.957 29.4487 179.247 37.4787C178.877 37.8587 178.247 38.2887 177.997 38.0687C172.097 32.7087 165.867 27.6087 163.237 19.6387V19.6387Z" fill="#545456"/>
<path d="M23.5371 146.899C18.0871 145.489 13.3371 143.049 10.3871 137.959C10.2171 134.819 12.3171 135.169 14.3271 135.419C19.5971 136.059 24.1471 138.479 28.5071 141.309C30.1771 142.389 32.0471 143.849 31.4871 145.959C30.7871 148.609 28.2071 147.229 26.4071 147.439C25.4271 147.549 24.4471 147.339 23.5371 146.899V146.899Z" fill="#1475B0"/>
<path d="M23.5373 146.899C25.7173 146.769 27.8973 146.649 30.1973 146.509C25.6473 139.259 17.2572 135.699 10.3872 137.959C8.70725 136.849 7.16725 135.639 7.38725 133.299C18.8572 133.639 28.9373 136.949 35.9473 146.739C33.9273 149.989 31.0072 149.039 28.1572 148.419C26.4772 148.329 24.7373 148.409 23.5273 146.889L23.5373 146.899Z" fill="#1D76B1"/>
<path d="M67.4072 13.5988C62.0372 15.3488 57.1472 18.8388 51.0972 18.1388C58.5672 12.1288 67.1572 8.44884 76.3672 6.05884C78.2972 6.50884 79.4972 7.65884 79.8172 9.65884C79.5172 10.7988 78.7172 11.4488 77.6972 11.9088C74.3072 12.7088 71.1372 14.8188 67.4172 13.5988H67.4072Z" fill="#7EA8D9"/>
<path d="M79.3869 9.08878C77.9369 8.50878 76.9269 7.49878 76.3569 6.04878C83.0269 3.08878 89.9569 1.31878 97.3069 1.55878C98.5169 6.74878 93.1169 5.33878 91.3269 7.53878C87.6469 10.3888 83.7969 11.8988 79.3869 9.08878Z" fill="#80AFDD"/>
<path d="M172.307 45.0387C169.907 45.0087 169.017 43.2287 168.167 41.4487C163.957 32.6087 155.547 27.3387 149.817 19.7887C150.797 19.7487 151.787 19.7087 152.767 19.6687C163.657 24.3387 169.747 33.2487 174.097 43.7087C173.497 44.1487 172.907 44.5987 172.307 45.0387V45.0387Z" fill="#6C6D6F"/>
<path d="M68.887 160.189C57.567 157.269 45.977 155.959 34.457 154.209C36.447 153.089 38.437 151.969 40.427 150.849C40.817 150.819 41.217 150.779 41.607 150.749C49.077 151.959 56.707 152.379 63.877 155.129C66.327 156.069 69.387 156.359 68.887 160.189Z" fill="#86878B"/>
<path d="M29.967 178.149C39.527 177.919 49.077 178.109 58.537 179.699C51.357 183.749 43.367 181.599 35.787 182.669C33.847 181.159 31.907 179.649 29.957 178.139L29.967 178.149Z" fill="#A3A9B1"/>
<path d="M80.8673 194.599C80.3673 196.079 79.8773 197.559 79.3773 199.039C74.1373 199.199 69.2773 197.559 64.4473 195.839C65.4173 194.059 67.7473 192.629 65.8873 190.139C71.7773 188.599 76.7873 190.059 80.8673 194.599V194.599Z" fill="#588ABF"/>
<path d="M174.097 43.7089C167.487 35.2489 161.657 26.1089 152.767 19.6689C154.257 19.6489 155.747 19.6389 157.237 19.6189C166.207 24.8689 171.887 32.7989 175.677 42.2589C175.147 42.7389 174.617 43.2289 174.097 43.7089V43.7089Z" fill="#666769"/>
<path d="M137.757 187.209C137.757 188.529 137.747 189.859 137.737 191.179C132.707 192.689 128.367 196.269 122.797 196.159C122.297 195.149 121.787 194.129 121.287 193.119C121.797 191.249 123.337 190.549 124.927 189.899C127.387 189.079 129.657 187.749 132.217 187.189C133.777 186.899 135.337 186.509 136.947 186.699C137.217 186.869 137.487 187.039 137.747 187.219L137.757 187.209Z" fill="#558ABE"/>
<path d="M28.167 148.419C30.797 147.999 33.577 148.339 35.957 146.739C37.457 146.229 38.947 145.729 40.447 145.219C42.107 145.219 43.847 145.469 44.947 143.749C46.437 143.239 47.937 142.729 49.427 142.219C50.437 141.739 51.447 141.269 52.447 140.789C54.027 142.689 52.917 144.229 51.797 145.779C50.777 146.879 49.527 147.649 48.157 148.219C45.207 149.799 41.967 149.439 38.807 149.579C35.277 149.099 31.527 150.569 28.177 148.419H28.167Z" fill="#5188BD"/>
<path d="M175.677 42.2489C169.587 34.6489 164.177 26.5089 157.237 19.6089C158.237 19.6089 159.237 19.6289 160.237 19.6289C167.367 25.2989 173.867 31.4689 176.727 40.5189C177.037 41.4989 176.467 41.9489 175.667 42.2489H175.677Z" fill="#606163"/>
<path d="M176.737 40.5187C172.167 32.8287 166.247 26.1987 160.247 19.6287C161.247 19.6287 162.237 19.6287 163.237 19.6387C168.577 25.5887 173.917 31.5387 179.247 37.4787C178.407 38.4887 177.567 39.4987 176.727 40.5087L176.737 40.5187Z" fill="#58595B"/>
<path d="M120.007 1.51875C112.437 1.53875 104.867 1.55875 97.2969 1.57875C104.857 -0.551248 112.427 -0.481248 120.007 1.51875V1.51875Z" fill="#80AFDD"/>
<path d="M38.7969 149.579C41.8669 148.679 44.9369 147.779 48.0069 146.879C49.0569 147.249 49.8569 147.819 49.7969 149.099C48.9069 150.969 47.2169 151.199 45.4269 151.209C43.7569 151.019 42.1369 151.799 40.4569 151.509L40.4269 150.859C39.8869 150.429 39.3469 150.009 38.7969 149.579V149.579Z" fill="#D7DFE6"/>
<path d="M192.967 134.669C193.057 135.269 193.157 135.869 193.247 136.469C192.807 138.709 191.927 140.719 190.157 142.249C189.937 139.299 190.957 136.799 192.967 134.669Z" fill="#2580C2"/>
<path d="M17.4772 52.2688C18.1372 52.3388 18.7972 52.3988 19.4672 52.4688C20.5372 55.3388 17.7772 55.6488 16.4872 56.9488C16.0572 56.9488 15.6272 56.9688 15.1972 56.9688C14.7072 54.7988 16.2172 53.5988 17.4872 52.2788L17.4772 52.2688Z" fill="#0063AB"/>
<path d="M50.917 145.139C51.427 143.689 51.937 142.239 52.447 140.789C57.757 138.329 62.807 135.539 65.947 130.289C66.937 129.289 67.927 128.289 68.917 127.289C70.407 125.789 71.897 124.289 73.387 122.789C76.257 122.109 77.547 123.809 78.417 126.139C73.777 136.339 59.547 146.169 50.927 145.149L50.917 145.139Z" fill="#5E8CC2"/>
<path d="M131.687 68.8988C133.217 69.4088 134.747 69.9288 136.277 70.4388C134.777 72.9288 133.267 75.4088 131.767 77.8988C131.267 78.3888 130.767 78.8888 130.257 79.3788C127.927 80.2288 125.877 79.7388 124.057 78.0988C124.527 73.3188 126.067 69.4288 131.687 68.8988V68.8988Z" fill="#7BA6D7"/>
<path d="M77.4272 125.759C76.0772 124.769 74.7172 123.779 73.3672 122.789C73.8272 121.769 74.2972 120.749 74.7572 119.739C75.7672 117.759 78.0072 116.409 77.8172 113.809C78.3772 112.839 78.9372 111.869 79.4872 110.899C82.4372 110.189 84.1972 111.919 85.7972 113.989C85.4472 119.649 81.7472 122.929 77.4172 125.769L77.4272 125.759Z" fill="#5287C2"/>
<path d="M85.0471 113.789C82.6171 113.919 81.4471 111.659 79.4971 110.889C79.9371 109.369 80.3671 107.849 80.7971 106.329C81.3071 105.329 81.8271 104.329 82.3471 103.329C85.7371 101.499 87.3571 103.709 88.8871 106.169C89.0671 109.439 88.8171 112.499 85.0471 113.789Z" fill="#4983C1"/>
<path d="M182.667 149.729C178.187 157.969 178.217 157.929 170.877 152.309C153.187 138.749 132.607 133.569 110.867 131.769C110.337 131.159 110.097 130.449 110.137 129.639C110.517 126.879 110.967 124.149 114.047 122.949C123.597 121.159 132.777 123.539 141.807 125.989C154.807 129.529 166.637 135.679 177.437 143.749C179.577 145.349 182.077 146.729 182.657 149.729H182.667Z" fill="#0067B2"/>
<path d="M182.667 149.729C168.657 139.319 153.907 130.359 136.547 126.669C129.047 125.069 121.497 123.779 113.767 124.289C112.087 122.559 112.157 120.559 112.877 118.459C113.457 117.319 114.317 116.449 115.437 115.849C125.817 113.799 135.677 116.809 145.457 119.429C159.027 123.069 171.447 129.299 182.477 138.109C184.437 139.669 186.377 141.219 187.147 143.749C185.917 145.939 185.367 148.639 182.667 149.729V149.729Z" fill="#0063AB"/>
<path d="M187.147 143.739C172.047 131.899 155.647 122.679 136.517 119.219C129.527 117.949 122.527 116.419 115.327 116.809C113.617 114.779 114.727 113.069 115.957 111.369C116.237 111.189 116.527 111.009 116.817 110.829C129.237 112.869 141.797 113.669 153.847 118.199C165.667 122.639 176.107 129.059 186.137 136.449C188.267 138.019 188.777 139.889 188.627 142.249C188.137 142.749 187.647 143.249 187.147 143.749V143.739Z" fill="#0069B4"/>
<path d="M170.857 163.599C170.277 164.449 169.707 165.289 169.127 166.139C166.887 166.769 165.397 165.419 163.787 164.219C148.897 153.099 132.627 146.049 113.547 147.169C111.087 147.309 108.547 147.309 106.377 145.749C104.857 143.499 105.587 141.899 107.837 140.749C129.987 140.829 150.517 145.889 167.957 160.359C169.067 161.279 169.897 162.519 170.857 163.609V163.599Z" fill="#0C73B6"/>
<path d="M107.827 140.739C107.317 142.239 106.797 143.729 106.287 145.229C106.377 146.699 105.887 147.899 104.617 148.739C103.917 148.939 103.217 148.959 102.497 148.859C100.687 148.369 98.8469 147.929 97.9069 146.019C97.4369 140.849 98.9169 136.529 103.397 133.519C105.567 132.949 107.587 133.079 109.267 134.769C108.777 136.759 108.297 138.749 107.807 140.739H107.827Z" fill="#4A85C1"/>
<path d="M109.287 134.769C107.287 134.769 105.287 134.759 103.277 134.749C100.997 130.669 102.127 127.559 105.967 125.209C108.847 125.699 112.307 125.619 110.817 130.279C110.817 130.769 110.827 131.269 110.867 131.759C110.337 132.759 109.807 133.759 109.277 134.759L109.287 134.769Z" fill="#367DBE"/>
<path d="M16.4873 56.9487C17.4773 55.4587 18.4773 53.9587 19.4673 52.4687C20.4773 50.9787 21.4873 49.4887 22.4973 47.9887C23.5173 47.1987 24.7273 46.6487 25.9673 46.8587C50.3373 50.8687 72.5473 59.3287 89.8373 77.9087L89.8773 77.8887C90.7473 79.2587 90.4173 80.7187 90.2673 82.1787C89.6273 84.0987 90.2773 86.9687 86.8673 86.8787C69.9273 72.0087 50.8973 61.4087 28.3773 57.5787C24.3773 56.8987 20.4373 57.2187 16.4873 56.9487V56.9487Z" fill="#0069B5"/>
<path d="M86.867 86.8888C89.027 85.3188 88.137 82.9688 88.387 80.9088C92.477 81.0388 93.397 84.4788 95.007 87.2088C94.907 90.8888 95.147 94.6788 92.007 97.4788C87.947 98.6888 87.057 95.3188 85.457 92.9588C85.927 90.9388 86.397 88.9088 86.867 86.8888V86.8888Z" fill="#1F78BB"/>
<path d="M85.4569 92.9587C87.3369 94.4187 89.2169 95.8687 91.0869 97.3287C93.3669 101.439 90.6169 103.839 88.0369 106.309C86.1769 105.239 84.8569 103.139 82.3369 103.339C82.3569 102.349 82.3769 101.359 82.3969 100.369C83.3469 98.3687 84.2969 96.3687 85.2469 94.3687C85.3169 93.8987 85.3869 93.4387 85.4469 92.9687L85.4569 92.9587Z" fill="#377EBE"/>
<path d="M124.187 77.8787C126.377 77.6987 128.367 78.3487 130.257 79.3887C129.767 80.3887 129.267 81.3887 128.777 82.3987C127.357 82.9687 126.357 83.9687 125.787 85.3887C123.997 86.8887 122.087 87.1487 120.017 85.9987C117.867 81.4787 119.787 79.0387 124.197 77.8787H124.187Z" fill="#74A1D5"/>
<path d="M119.547 85.2888C121.627 85.3188 123.707 85.3488 125.777 85.3888C125.277 86.8888 124.777 88.3888 124.287 89.8788C121.907 91.3088 119.537 92.7488 116.577 91.5988C115.307 88.4388 115.987 86.1888 119.537 85.2888H119.547Z" fill="#6698D0"/>
<path d="M67.407 13.5988C70.777 12.1788 74.097 10.5588 77.887 10.5888C86.857 10.8988 92.977 17.3588 100.247 21.2188C105.427 23.9788 110.337 27.4088 115.127 30.8888C116.527 34.6388 113.707 36.1188 111.367 37.8688C110.617 38.0988 109.927 37.9988 109.307 37.5088C95.337 29.5388 81.367 21.5688 67.397 13.5988H67.407Z" fill="#61A2D7"/>
<path d="M109.307 37.5087C109.797 37.5087 110.297 37.5087 110.787 37.5087C113.197 36.8187 114.037 38.3487 114.637 40.2287C114.517 43.6387 111.897 45.9387 110.777 48.9087C109.547 50.4187 109.317 53.2387 106.267 52.3687C106.557 50.2187 105.827 48.3187 104.807 46.4987C103.997 42.3487 107.817 40.5187 109.307 37.5287V37.5087Z" fill="#79A4D5"/>
<path d="M119.817 100.379C146.267 101.229 169.797 110.259 190.927 125.899C193.357 127.699 195.607 129.889 193.097 133.289C173.627 117.209 151.257 107.939 126.237 104.929C123.457 104.599 120.767 104.829 118.297 106.329C116.397 107.599 114.437 108.129 112.337 106.769C111.487 105.569 111.427 104.439 112.617 103.399C115.167 102.749 118.927 104.979 119.817 100.369V100.379Z" fill="#2580C2"/>
<path d="M112.027 106.249C114.117 106.279 116.207 106.309 118.307 106.339C117.807 107.839 117.317 109.329 116.817 110.829L116.737 110.809C114.857 112.369 112.867 112.579 110.757 111.289C109.547 109.199 109.027 107.279 112.037 106.249H112.027Z" fill="#257BBE"/>
<path d="M115.317 31.5388C106.787 30.0188 101.277 23.1188 93.877 19.4588C88.467 16.7788 83.277 13.4488 77.877 10.5888C78.377 10.0888 78.887 9.58877 79.387 9.08877C83.367 8.56877 87.347 8.04877 91.327 7.53877C110.517 4.15877 128.747 7.74877 146.447 15.1788C147.347 15.5588 148.357 15.7988 148.477 17.5588C141.627 18.6488 134.587 19.6288 128.767 24.0388C124.717 27.3088 121.147 31.4588 115.317 31.5488V31.5388Z" fill="#58A1D7"/>
<path d="M163.237 49.4987C161.217 50.4387 159.197 51.3687 157.177 52.3087C156.017 53.6687 154.437 53.2287 152.967 53.2887C151.237 52.7287 150.007 51.4987 149.027 50.0587C143.787 42.3787 136.617 37.4787 127.717 34.9587C126.057 34.4887 124.357 33.9687 123.677 32.0787C123.747 28.7287 125.987 27.6387 128.807 27.1687C131.247 26.0187 133.367 24.0487 136.307 24.1387C138.887 28.0387 143.547 28.9587 147.037 31.5987C153.607 36.5587 158.327 43.0887 163.237 49.4987V49.4987Z" fill="#8E9093"/>
<path d="M128.807 27.1688C127.287 28.6188 125.777 30.0688 124.257 31.5188C122.577 35.6688 119.397 38.4588 115.797 40.8888C115.067 41.0988 114.407 40.9888 113.807 40.5088C113.227 39.0788 112.227 38.0688 110.787 37.4988C112.297 35.5088 113.807 33.5188 115.317 31.5288C119.817 29.0588 123.357 24.8588 128.767 24.0188C128.777 25.0688 128.797 26.1188 128.807 27.1588V27.1688Z" fill="#7DABD9"/>
<path d="M116.617 92.5088C116.587 92.0688 116.717 91.6788 116.997 91.3388C119.217 89.8388 121.727 89.7588 124.277 89.8788C122.577 93.2588 120.927 96.7688 116.607 92.5088H116.617Z" fill="#5E96CF"/>
<path d="M80.8671 194.599C75.8771 193.109 70.8771 191.629 65.8871 190.139C61.8271 188.579 57.7671 187.029 51.9971 184.819C70.6771 182.209 84.7071 174.569 95.8371 161.689C119.367 154.189 140.137 159.529 158.707 175.149C152.447 180.429 145.327 184.209 137.757 187.199V187.089C124.927 180.599 111.697 179.419 98.0771 184.209C92.3371 186.229 87.3471 189.399 83.8671 194.559C82.8671 194.559 81.8671 194.579 80.8771 194.589L80.8671 194.599Z" fill="#3B7BB7"/>
<path d="M49.5269 148.299C62.0469 147.629 74.5669 145.869 87.1069 148.079C86.6769 148.729 86.0969 149.189 85.3769 149.489C80.3669 150.489 75.3869 150.659 70.4869 148.759C77.3969 151.699 85.2369 153.069 89.6869 160.129C89.1469 162.599 86.3769 162.849 85.1769 164.669C81.4469 166.759 79.0969 163.689 76.5369 162.129C68.4169 157.159 59.8269 153.679 50.2869 152.719C48.2969 152.519 45.6669 153.179 45.0669 150.069C46.5369 149.449 48.4369 149.909 49.5169 148.309L49.5269 148.299Z" fill="#808184"/>
<path d="M158.707 175.149C151.437 174.399 147.357 167.869 140.567 165.589C126.577 160.889 112.867 158.149 98.4169 162.609C97.3169 162.949 96.5069 162.519 95.8369 161.689C95.8369 161.199 95.8469 160.709 95.8569 160.219C96.5069 158.559 97.7669 157.569 99.4069 156.989C120.397 152.109 139.497 156.259 156.747 169.089C158.357 170.289 159.877 171.519 160.227 173.659C159.717 174.149 159.207 174.649 158.707 175.139V175.149Z" fill="#357AB8"/>
<path d="M89.687 160.129C82.827 156.459 75.967 152.789 67.957 148.509H85.577C89.177 149.399 92.227 151.199 94.627 154.049C95.027 155.699 94.077 156.539 92.757 157.159C91.737 158.149 90.707 159.139 89.687 160.129Z" fill="#727477"/>
<path d="M45.077 150.069C59.247 152.739 72.887 156.879 85.187 164.669C84.717 165.159 84.257 165.659 83.787 166.159C77.647 167.099 74.077 161.639 68.897 160.199C64.277 155.729 58.117 155.279 52.317 154.349C48.257 153.699 44.227 153.239 40.457 151.509C41.887 150.669 43.297 149.779 45.077 150.069V150.069Z" fill="#838589"/>
<path d="M92.7568 157.159C93.1868 156.169 93.6168 155.169 94.0468 154.179C93.0968 151.099 95.5068 149.749 97.2168 148.039C97.6468 147.569 98.0768 147.109 98.5068 146.639C100.267 146.799 102.207 146.429 103.377 148.309C104.147 149.049 104.327 149.969 104.197 150.979C103.897 152.259 103.327 153.419 102.727 154.569C101.947 156.429 100.417 157.599 98.8168 158.689C97.8368 159.199 96.8468 159.709 95.8668 160.219C95.2768 158.739 94.2368 157.729 92.7668 157.149L92.7568 157.159Z" fill="#5689C2"/>
<path d="M68.8872 160.189C74.9372 159.479 78.1672 165.799 83.7772 166.149C83.2372 167.339 82.1872 167.649 81.0272 167.769C77.0672 165.109 71.7472 164.609 68.8872 160.189Z" fill="#86878B"/>
<path d="M89.8368 77.9087C82.2268 75.3687 77.2268 68.9387 70.6968 64.7287C57.9568 56.5287 44.2168 52.2587 29.7068 49.4287C27.3068 48.9587 24.9068 48.4687 22.5068 47.9887C23.9168 44.8087 26.6768 44.5987 29.4668 45.1687C50.1568 49.3487 69.4268 56.7787 85.9468 70.3387C88.3068 72.2787 90.3568 74.4487 89.8468 77.9087H89.8368Z" fill="#0063AB"/>
<path d="M97.0872 77.8988C96.1472 80.8888 95.1972 83.8788 94.2572 86.8688C91.3872 85.7788 90.5272 82.7188 88.3872 80.8988C88.8872 79.8888 89.3772 78.8888 89.8772 77.8788C92.2872 73.9688 94.6872 78.0088 97.0872 77.8888V77.8988Z" fill="#2677B7"/>
<path d="M151.487 52.7188C141.307 55.2188 130.967 54.1888 120.787 53.2588C115.777 52.7988 111.067 52.7588 106.257 53.8588C106.217 53.3588 106.227 52.8588 106.257 52.3688C107.297 50.9188 108.337 49.4688 109.377 48.0188C116.307 42.4788 123.657 43.6888 130.957 46.9288C134.787 48.6288 138.327 51.0388 142.817 50.2888C145.897 50.3988 149.117 50.0688 151.477 52.7288L151.487 52.7188Z" fill="#C9CACC"/>
<path d="M83.8671 194.569C82.1771 191.939 84.1071 190.529 85.7271 189.019C96.9271 178.619 123.027 176.059 135.957 184.059C137.137 184.789 137.597 185.819 137.757 187.089C136.257 187.589 134.757 188.099 133.247 188.599C116.897 183.639 101.487 186.029 86.8771 194.559C85.8671 194.559 84.8671 194.559 83.8571 194.559L83.8671 194.569Z" fill="#3379B4"/>
<path d="M86.8772 194.569C101.037 182.509 116.467 180.329 133.247 188.609C130.737 189.589 128.237 190.569 125.727 191.539C116.467 189.569 107.397 190.359 98.0372 193.559C100.287 193.069 102.037 192.999 103.357 194.629C97.8472 198.669 92.3672 193.259 86.8672 194.569H86.8772Z" fill="#2B78B3"/>
<path d="M103.367 194.629C101.247 194.509 99.1269 194.389 96.5469 194.249C104.257 187.489 119.267 186.299 125.727 191.539C124.247 192.059 122.757 192.589 121.277 193.109C115.287 193.369 109.447 195.469 103.357 194.629H103.367Z" fill="#2276B1"/>
<path d="M98.8169 158.689C99.8069 157.189 100.787 155.689 101.777 154.189C108.617 150.159 115.757 151.069 123.297 151.939C137.047 153.529 148.947 158.859 159.817 167.029C161.187 168.059 162.667 169.029 163.347 170.739C162.307 171.719 161.277 172.689 160.237 173.669C145.377 162.249 128.987 155.449 109.827 157.219C106.147 157.559 102.487 158.189 98.8169 158.689V158.689Z" fill="#2E79B8"/>
<path d="M104.837 148.229C104.857 147.009 105.097 145.889 106.287 145.229C130.237 143.169 151.137 150.269 169.117 166.129C168.657 166.649 168.187 167.169 167.727 167.689C164.957 169.419 163.057 167.569 161.087 166.069C146.967 155.309 131.307 149.249 113.277 150.159C110.377 150.309 107.217 150.729 104.837 148.219V148.229Z" fill="#1875B7"/>
<path d="M104.837 148.229C124.267 146.669 142.347 150.359 158.687 161.549C161.687 163.599 163.447 167.559 167.727 167.699C167.217 168.189 166.697 168.679 166.187 169.169C163.017 170.939 160.957 168.429 158.947 166.949C143.547 155.599 126.477 150.469 107.357 152.539C105.837 152.699 104.387 152.469 103.297 151.209C103.317 150.239 103.337 149.269 103.367 148.299C103.857 148.269 104.347 148.239 104.837 148.229V148.229Z" fill="#2177B8"/>
<path d="M103.307 151.219C120.507 150.019 137.017 152.099 152.387 160.659C157.127 163.299 160.517 168.099 166.187 169.169C165.587 170.339 164.527 170.669 163.337 170.739C160.337 170.719 158.237 168.619 156.257 166.999C144.647 157.449 130.667 154.599 116.407 152.919C111.647 152.359 106.657 153.719 101.767 154.199C101.837 152.979 102.117 151.869 103.297 151.219H103.307Z" fill="#2978B8"/>
<path d="M106.097 125.469C106.757 123.079 107.417 120.699 108.077 118.309C109.997 116.729 111.907 116.569 113.827 118.309C113.807 120.299 113.787 122.289 113.767 124.279C111.407 125.599 113.207 128.969 110.827 130.279C111.007 126.949 107.057 127.679 106.097 125.459V125.469Z" fill="#1D77BB"/>
<path d="M113.827 118.319C111.907 118.319 109.997 118.319 108.077 118.319C108.827 115.779 109.587 113.229 110.337 110.689C112.467 110.729 114.597 110.769 116.727 110.819C116.257 112.819 115.787 114.819 115.317 116.819C114.817 117.319 114.317 117.829 113.817 118.329L113.827 118.319Z" fill="#2676B6"/>
<path d="M142.267 52.4388C139.377 52.3388 136.477 52.9188 133.827 50.8788C126.297 45.0788 117.937 45.5988 109.387 48.0188C110.867 45.5188 112.337 43.0188 113.807 40.5188C114.267 40.4988 114.737 40.4788 115.197 40.4688C125.947 36.5488 139.607 42.5988 142.267 52.4388Z" fill="#B9BBBE"/>
<path d="M142.267 52.4388C135.767 42.7588 125.977 40.4988 115.207 40.4688C117.687 36.9388 120.637 33.8988 124.267 31.5288C136.137 35.2088 146.607 40.8188 152.757 52.3288C152.367 52.5688 151.947 52.7088 151.487 52.7288C148.417 52.6388 145.347 52.5388 142.267 52.4488V52.4388Z" fill="#ACAEB1"/>
<path d="M97.2169 148.039C96.1669 150.089 95.1069 152.129 94.0469 154.179C90.2769 153.689 88.5369 150.179 85.5669 148.509C86.0769 148.369 86.5869 148.229 87.0969 148.089C90.4669 148.079 93.8469 148.059 97.2169 148.049V148.039Z" fill="#6B6E71"/>
</svg>
